<svg id="add-svg" xmlns="http://www.w3.org/2000/svg" width="512" height="512" viewBox="0 0 512 512" version="1.1"><path d="M 240.973 2.277 C 230.141 5.970, 220.254 14.505, 215.231 24.500 C 209.882 35.143, 210 32.951, 210 121.626 L 210 203.888 207.587 206.694 L 205.174 209.500 120.337 210 L 35.500 210.500 29.761 212.818 C 17.562 217.744, 7.445 227.557, 2.970 238.804 C -0.452 247.402, -0.900 261.433, 1.976 269.946 C 5.981 281.803, 13.944 291.338, 24.233 296.597 C 34.925 302.063, 33.790 302, 122.154 302 L 203.888 302 206.694 304.413 L 209.500 306.826 210 391.663 L 210.500 476.500 212.818 482.239 C 217.722 494.382, 227.789 504.772, 238.958 509.218 C 247.143 512.476, 264.001 512.449, 272.658 509.162 C 284.225 504.772, 294.151 494.696, 299.182 482.239 L 301.500 476.500 302 391.663 L 302.500 306.826 305.306 304.413 L 308.112 302 389.846 302 C 477.586 302, 477.109 302.025, 487.280 296.872 C 497.247 291.822, 506.479 281.371, 509.473 271.748 C 510.372 268.862, 511.533 265.719, 512.053 264.764 C 513.213 262.637, 513.326 245.680, 512.176 246.391 C 511.723 246.671, 510.784 244.682, 510.089 241.970 C 507.508 231.899, 498.075 220.672, 487.767 215.403 C 477.074 209.937, 478.221 210, 389.713 210 L 307.846 210 304.923 207.077 L 302 204.154 302 122.287 C 302 33.815, 302.063 34.964, 296.612 24.233 C 286.638 4.596, 262.319 -5.001, 240.973 2.277 M 0.360 256 C 0.360 261.225, 0.529 263.363, 0.735 260.750 C 0.941 258.137, 0.941 253.863, 0.735 251.250 C 0.529 248.637, 0.360 250.775, 0.360 256" stroke="none" fill="#000000" fill-rule="evenodd"/></svg>