<?xml version="1.0" encoding="UTF-8"?>
<svg version="1.1" xmlns="http://www.w3.org/2000/svg" width="512" height="512">
<path d="M0 0 C1.24440974 -0.00917004 1.24440974 -0.00917004 2.51395908 -0.01852533 C5.29427898 -0.03412763 8.07372688 -0.02125832 10.85405064 -0.00850582 C12.86729824 -0.01383088 14.88054187 -0.02089633 16.89377791 -0.02955288 C22.42657082 -0.04821231 27.95909666 -0.04186376 33.4919008 -0.03139985 C39.45860889 -0.02441725 45.42526159 -0.04039863 51.39195347 -0.05339718 C62.40544231 -0.07380588 73.41885398 -0.07585175 84.43235493 -0.06818072 C94.60730933 -0.0611084 104.78223213 -0.06105004 114.9571867 -0.06804371 C116.32195243 -0.06895504 117.68671816 -0.0698658 119.05148389 -0.070776 C121.1080515 -0.07215913 123.16461911 -0.07355021 125.22118671 -0.07496213 C144.34147883 -0.08794317 163.46176037 -0.09305687 182.58205414 -0.08142853 C183.66321206 -0.08077157 183.66321206 -0.08077157 184.76621155 -0.08010134 C190.61941992 -0.0764945 196.47262814 -0.07265974 202.32583636 -0.06881041 C225.15881756 -0.05396222 247.99167915 -0.06274301 270.82464695 -0.09076595 C296.47766074 -0.12218973 322.13060371 -0.13716524 347.78363711 -0.12696594 C350.51858046 -0.12592916 353.25352383 -0.12494193 355.98846722 -0.12398243 C356.99858604 -0.1236091 356.99858604 -0.1236091 358.0291113 -0.12322823 C368.19684633 -0.11978742 378.36451885 -0.1290971 388.53224087 -0.14475346 C400.09460375 -0.16251634 411.65681697 -0.16219177 423.21917432 -0.1394018 C429.11991509 -0.12823924 435.02036918 -0.125143 440.92109776 -0.14370251 C446.32157878 -0.16047021 451.72152225 -0.15420613 457.12196822 -0.12948572 C459.07679852 -0.12458988 461.03167189 -0.1281521 462.98646628 -0.14097316 C465.64283572 -0.15713993 468.29734296 -0.14252482 470.95362854 -0.12025452 C471.71353207 -0.13224619 472.47343561 -0.14423787 473.25636652 -0.15659294 C479.04646811 -0.0573959 483.05834462 1.85547014 487.53973484 5.50615788 C492.11682986 11.28641642 492.12848495 16.46345187 492.07098484 23.66240788 C492.07481174 24.72350773 492.07863865 25.78460758 492.08258152 26.87786198 C492.08529438 29.11350806 492.07797724 31.34918623 492.06121922 33.58477116 C492.03980184 36.99548847 492.06104347 40.40409938 492.08660984 43.81475163 C492.08396645 45.99314166 492.07884126 48.1715304 492.07098484 50.34990788 C492.07908176 51.36363468 492.08717869 52.37736149 492.09552097 53.42180729 C491.99713571 60.89625834 490.64297696 65.40291575 485.22723484 70.81865788 C479.58340618 74.36245727 473.71909681 74.79885251 467.20440865 74.76063347 C465.98025939 74.76544319 465.98025939 74.76544319 464.73137984 74.77035007 C461.99722473 74.77865025 459.26328867 74.7727257 456.52912998 74.76685429 C454.5488845 74.76987495 452.56864017 74.77376401 450.58839792 74.77844685 C445.14688278 74.7887464 439.70543338 74.78654004 434.2639128 74.78226626 C428.39538173 74.77980261 422.52686665 74.78880867 416.65834141 74.79630375 C405.16162555 74.80906255 393.66493303 74.81084299 382.16821129 74.80850349 C372.82538524 74.80667073 363.48256437 74.80843006 354.13973904 74.81272793 C352.79740047 74.81333033 351.4550619 74.81393153 350.11272333 74.81453153 C348.08994694 74.81543878 346.06717055 74.81634745 344.04439417 74.81726388 C325.23847145 74.82569311 306.43255131 74.83002928 287.62662697 74.82585716 C286.56326337 74.8256226 286.56326337 74.8256226 285.47841768 74.8253833 C281.8853935 74.82457751 278.29236934 74.82373174 274.69934518 74.82286999 C273.9857601 74.82269891 273.27217501 74.82252782 272.53696614 74.82235155 C271.09392432 74.82200489 269.6508825 74.82165636 268.20784068 74.82130596 C245.75082959 74.81594798 223.29385775 74.82388148 200.83685398 74.84233952 C175.60575385 74.86305337 150.37467804 74.87378347 125.14356893 74.86976403 C122.45356143 74.86936868 119.76355392 74.86900714 117.07354641 74.86866665 C116.41119907 74.86857592 115.74885172 74.86848519 115.06643325 74.8683917 C105.06616457 74.86722556 95.0659235 74.8739114 85.06566143 74.88447857 C73.69363984 74.89637351 62.32167605 74.89781842 50.94965369 74.8856884 C45.14618775 74.87978664 39.34282762 74.87873614 33.53936863 74.8906908 C28.22783077 74.90150515 22.91648764 74.89849935 17.60495906 74.88442912 C15.68242775 74.88176992 13.7598814 74.88418689 11.8373648 74.89216498 C9.22497515 74.90225432 6.61326457 74.8938634 4.00090218 74.88088799 C3.25383341 74.88819733 2.50676464 74.89550668 1.73705742 74.90303752 C-5.56044829 74.82786479 -12.17879204 72.787631 -17.46026516 67.50615788 C-21.08045388 61.99339783 -20.92775149 56.85544648 -20.92901516 50.48272038 C-20.93662868 49.42257725 -20.94424221 48.36243412 -20.95208645 47.27016544 C-20.96286738 45.03277275 -20.96574874 42.79532981 -20.96124172 40.55791569 C-20.96027029 37.14917687 -21.00189919 33.74269655 -21.04620266 30.33428288 C-21.05141084 28.15460004 -21.05409783 25.97490943 -21.05401516 23.79522038 C-21.07041042 22.7835178 -21.08680569 21.77181522 -21.10369778 20.72945499 C-21.04165913 14.32221948 -20.15116674 9.16307332 -15.46026516 4.50615788 C-10.0968665 0.88992767 -6.40168491 -0.07624812 0 0 Z " fill="#000000" transform="translate(20.460265159606934,383.49384212493896)"/>
<path d="M0 0 C1.13538246 -0.00352835 1.13538246 -0.00352835 2.29370195 -0.00712797 C4.84455701 -0.01381523 7.39536111 -0.01335983 9.94622421 -0.01294994 C11.78776145 -0.01624873 13.62929795 -0.01997432 15.47083354 -0.02409142 C20.54285582 -0.03411768 25.61486626 -0.03782921 30.68689704 -0.04048073 C36.15261193 -0.04438185 41.61831743 -0.05396023 47.08402634 -0.0626936 C60.28829405 -0.08246202 73.49256254 -0.09252407 86.69684136 -0.10142139 C92.91207754 -0.10580311 99.12731287 -0.11117017 105.34254837 -0.11641026 C125.99766615 -0.13342187 146.65278339 -0.14791713 167.3079071 -0.155159 C168.64363362 -0.15563375 169.97936013 -0.15610964 171.31508665 -0.15658666 C171.97748651 -0.15682303 172.63988638 -0.15705941 173.32235897 -0.15730295 C176.67840569 -0.15850415 180.0344524 -0.1597196 183.39049911 -0.16094494 C184.38952471 -0.16130516 184.38952471 -0.16130516 185.40873265 -0.16167267 C207.00641732 -0.16956698 228.6040471 -0.19300214 250.2017078 -0.22550088 C273.03494839 -0.25979614 295.86816502 -0.27950866 318.70143294 -0.28280324 C331.14866806 -0.28497042 343.59582247 -0.29374974 356.0430336 -0.31926441 C366.64109227 -0.34093828 377.23905064 -0.3490381 387.83712897 -0.33929763 C393.24568794 -0.33474352 398.65403981 -0.33670377 404.06257057 -0.35605907 C409.01344625 -0.37362385 413.96396272 -0.37274745 418.91484186 -0.35716178 C420.7062434 -0.35477555 422.49766937 -0.35916163 424.28903344 -0.37099043 C426.72479755 -0.38607862 429.15928377 -0.37645911 431.59501648 -0.36076355 C432.28999939 -0.37098576 432.98498231 -0.38120796 433.70102531 -0.39173993 C439.57700161 -0.30913922 444.82391394 1.56091419 449.11943789 5.61690668 C452.57814362 9.61332473 453.66593237 12.70065423 453.72619247 17.87762928 C453.73902771 18.83905338 453.75186295 19.80047749 453.76508713 20.79103565 C453.77616753 22.34729916 453.77616753 22.34729916 453.78747177 23.93500233 C453.79554352 25.00413364 453.80361526 26.07326496 453.81193161 27.1747942 C453.82576643 29.43851572 453.83649128 31.70225805 453.84435654 33.96600819 C453.86157176 37.42287282 453.90546468 40.87878168 453.94958115 44.33539295 C453.95970805 46.53525572 453.96822416 48.7351266 453.97497177 50.93500233 C453.99247986 51.96643864 454.00998795 52.99787495 454.02802658 54.0605669 C454.00660647 61.16905667 452.94899457 64.63466727 447.95153427 69.77875233 C442.94498951 73.77063735 439.38727191 74.28198798 433.17737007 74.27402878 C432.41683675 74.2769802 431.65630343 74.27993162 430.87272364 74.28297248 C428.30355496 74.29169047 425.73443116 74.29324657 423.16524887 74.29485035 C421.31291268 74.29957948 419.46057753 74.30473014 417.60824358 74.31026798 C412.5016913 74.32419885 407.39514617 74.33176467 402.2885797 74.33824098 C397.91261717 74.34460502 393.53666642 74.35467608 389.16071121 74.36480164 C374.7418019 74.39815036 360.32288541 74.4196512 345.90395015 74.43800148 C342.15054599 74.44279514 338.39714212 74.44777862 334.64373827 74.45280671 C311.3461524 74.48377557 288.04856388 74.51047127 264.75096321 74.52722549 C259.35281367 74.53116275 253.95466418 74.53517459 248.55651474 74.53925037 C247.88586102 74.53975204 247.2152073 74.54025371 246.52423074 74.54077058 C224.78131768 74.55718773 203.03851718 74.59564303 181.2956595 74.64653748 C158.31004876 74.70024283 135.32448467 74.73194395 112.33880579 74.73942238 C99.80819883 74.74408833 87.27777815 74.75887851 74.74723053 74.79916668 C64.07668344 74.83343252 53.40635624 74.84741989 42.73575728 74.83474254 C37.29052663 74.82890772 31.84576122 74.83283795 26.40060043 74.86291218 C21.41495002 74.89022399 16.4300965 74.88981397 11.44442876 74.86740173 C9.6415321 74.86417257 7.83858257 74.87108338 6.03577404 74.88919895 C-10.21410272 75.04257771 -10.21410272 75.04257771 -16.87278306 69.7850166 C-22.52824977 63.86875371 -23.04310693 57.64302647 -22.94690323 49.75531483 C-22.94835846 48.7844141 -22.94981369 47.81351337 -22.95131302 46.81319141 C-22.94966139 44.77181448 -22.93818328 42.73042413 -22.91736221 40.68915272 C-22.88836056 37.57720189 -22.89677898 34.46695278 -22.90979385 31.3549242 C-22.90355673 29.36337953 -22.895166 27.37184019 -22.88440323 25.38031483 C-22.88733887 24.45722019 -22.89027451 23.53412556 -22.8932991 22.58305836 C-22.79898556 16.08006663 -21.96730476 11.0175976 -17.54846573 5.95453358 C-16.87686417 5.39508045 -16.2052626 4.83562733 -15.51330948 4.25922108 C-14.84428604 3.6842992 -14.1752626 3.10937733 -13.48596573 2.51703358 C-9.31943992 -0.31396476 -4.88585669 -0.01029147 0 0 Z " fill="#000000" transform="translate(58.450809478759766,163.86577892303467)"/>
<path d="M0 0 C1.31800283 -0.00782324 2.63600567 -0.01564648 3.99394798 -0.02370679 C5.44993589 -0.01722112 6.90592255 -0.01045117 8.36190796 -0.00342751 C9.91373842 -0.00688478 11.46556643 -0.01164981 13.0173893 -0.01760924 C17.27930812 -0.03013941 21.54102556 -0.0239397 25.80294514 -0.01465058 C30.40014833 -0.00786869 34.99731665 -0.01833705 39.59451294 -0.02659035 C48.59947554 -0.03993906 57.60436319 -0.03704487 66.60932875 -0.02835242 C73.92702824 -0.02158077 81.24470672 -0.02065692 88.56240845 -0.02392387 C90.12389427 -0.02461342 90.12389427 -0.02461342 91.71692526 -0.0253169 C93.83159368 -0.02627607 95.94626209 -0.0272487 98.06093049 -0.02823468 C117.89608876 -0.0367919 137.73120545 -0.02694921 157.5663569 -0.01083358 C174.59051323 0.0025699 191.6146082 0.0002419 208.63876343 -0.01358986 C228.40233305 -0.02963979 248.16586622 -0.0359679 267.92944145 -0.02675307 C270.03638585 -0.02579741 272.14333025 -0.0248543 274.25027466 -0.02392387 C275.80531155 -0.02322963 275.80531155 -0.02322963 277.39176333 -0.02252137 C284.70174637 -0.01992972 292.01170632 -0.02430625 299.32168579 -0.03136253 C308.22857133 -0.0397712 317.13537754 -0.03751072 326.04225397 -0.0215203 C330.58778151 -0.01362907 335.13317671 -0.0105605 339.67870331 -0.02046776 C343.83862134 -0.02939752 347.99828421 -0.02451026 352.15817904 -0.0085351 C353.66415045 -0.00518 355.17014335 -0.00689773 356.67610097 -0.01416247 C358.7216135 -0.02327417 360.76718631 -0.01214141 362.81268311 0 C364.5176851 0.00073059 364.5176851 0.00073059 366.25713158 0.00147593 C371.55565843 0.63417357 375.40223289 2.80096732 378.71884155 6.94002342 C379.20997437 7.53943748 379.70110718 8.13885155 380.2071228 8.75642967 C382.32831708 11.62384213 382.54237411 13.47514723 382.58334351 16.99153709 C382.59617874 17.94980904 382.60901398 18.90808098 382.62223816 19.89539146 C382.63331856 21.45469131 382.63331856 21.45469131 382.6446228 23.04549217 C382.65269455 24.11366676 382.6607663 25.18184135 382.66908264 26.28238487 C382.68293251 28.54788651 382.69365061 30.81340909 382.70150757 33.07893944 C382.71868576 36.53369185 382.7625608 39.98747886 382.80673218 43.44197655 C382.81686203 45.64314138 382.82537722 47.84431436 382.8321228 50.04549217 C382.84963089 51.07490425 382.86713898 52.10431633 382.88517761 53.16492271 C382.86622266 59.47574666 382.13192183 63.23137044 378.40634155 68.37752342 C373.35485194 73.16996228 368.86459752 74.62619868 361.9725523 74.63479233 C360.6647407 74.64124122 359.35692911 74.64769011 358.00948685 74.65433443 C356.55979606 74.6513922 355.11010565 74.64825677 353.66041565 74.64494896 C352.11912431 74.64868532 350.57783487 74.65328679 349.03654844 74.6586796 C344.79907978 74.67092678 340.56168998 74.67064712 336.32420766 74.66829085 C331.75489861 74.66788312 327.18561499 74.67891767 322.61631775 74.68840599 C313.66337281 74.70502637 304.7104542 74.71051601 295.75749513 74.71163075 C288.48079059 74.71258073 281.20409475 74.71668852 273.92739296 74.723032 C253.30121897 74.74064722 232.6750658 74.74987043 212.04888424 74.74837105 C210.93667669 74.74829114 209.82446915 74.74821122 208.67855835 74.74812889 C207.00821245 74.74800625 207.00821245 74.74800625 205.30412219 74.74788113 C187.25526686 74.74706814 169.20649497 74.76620822 151.15766378 74.79440562 C132.62977759 74.82312328 114.10193209 74.83694654 95.57402307 74.83521807 C85.17018983 74.83455378 74.76644405 74.84006304 64.36263084 74.86157417 C55.50480994 74.87977125 46.64711615 74.88414543 37.78928467 74.87055533 C33.26980015 74.86401824 28.7505596 74.86393516 24.23109818 74.88126183 C20.09256701 74.89696492 15.95447383 74.89415737 11.81595353 74.87669356 C10.32000629 74.87361755 8.82402659 74.87727871 7.32811763 74.88841371 C-8.66084346 74.99953311 -8.66084346 74.99953311 -15.10048705 68.96563661 C-20.57154541 62.86499833 -20.90221988 57.31845405 -20.8944397 49.51033592 C-20.89872482 48.5573864 -20.90300995 47.60443687 -20.90742493 46.62261009 C-20.91315734 44.6104213 -20.91367653 42.59821179 -20.90933228 40.58601952 C-20.9061765 37.52006414 -20.92963078 34.45507808 -20.95498657 31.38924217 C-20.95726021 29.42960797 -20.95796276 27.46997118 -20.9569397 25.51033592 C-20.96614944 24.5997039 -20.97535919 23.68907188 -20.98484802 22.75084496 C-20.93501401 15.83636503 -19.84573068 11.05566338 -15.28115845 5.62752342 C-10.39747584 1.53885891 -6.3554783 0.00272329 0 0 Z " fill="#000000" transform="translate(129.59365844726563,273.6224765777588)"/>
<path d="M0 0 C1.17046682 -0.00583219 2.34093364 -0.01166439 3.54686916 -0.01767331 C4.82351188 -0.01389399 6.10015461 -0.01011467 7.41548347 -0.00622082 C8.79264569 -0.00924256 10.16980623 -0.01313216 11.54696381 -0.01781338 C15.32611743 -0.02809923 19.10517625 -0.02591008 22.88433766 -0.02163279 C26.96214335 -0.01916663 31.03992615 -0.02817838 35.11772346 -0.03567028 C43.10465478 -0.04842245 51.09155249 -0.05021032 59.07849227 -0.04787002 C65.57046642 -0.04608724 72.06243037 -0.04783563 78.55440331 -0.05209446 C79.47825124 -0.05268965 80.40209917 -0.05328484 81.35394249 -0.05389806 C83.23072544 -0.05510981 85.10750839 -0.05632394 86.98429133 -0.05754044 C104.58668705 -0.06841802 122.18906361 -0.06625248 139.79146041 -0.06015559 C155.89381599 -0.05498651 171.99611108 -0.06624127 188.0984547 -0.08525381 C204.63303046 -0.10462701 221.16757759 -0.1128891 237.70216477 -0.10913056 C246.98478697 -0.1072177 256.26735768 -0.10971438 265.54997063 -0.1238451 C273.45255316 -0.13575328 281.35505251 -0.13717013 289.25763617 -0.12505493 C293.2890035 -0.11916223 297.32021863 -0.11807759 301.35157585 -0.13005733 C305.04406314 -0.14090249 308.73627091 -0.13782922 312.42874505 -0.12379565 C314.39295546 -0.11989191 316.35717822 -0.13070702 318.32135952 -0.14209253 C327.11434204 -0.08819446 334.54220105 0.7288189 341.06785774 7.25447559 C344.68804647 12.76723564 344.53534408 17.90518699 344.53660774 24.27791309 C344.54422127 25.33805622 344.55183479 26.39819935 344.55967903 27.49046803 C344.57045996 29.72786072 344.57334133 31.96530365 344.5688343 34.20271778 C344.56786288 37.6114566 344.60949177 41.01793692 344.65379524 44.42635059 C344.65900342 46.60603343 344.66169042 48.78572404 344.66160774 50.96541309 C344.67800301 51.97711567 344.69439827 52.98881824 344.71129036 54.03117847 C344.64925172 60.43841399 343.75875932 65.59756015 339.06785774 70.25447559 C332.50930234 75.21176138 326.28722723 74.81708888 318.2828083 74.76241016 C316.87035481 74.76702203 315.45790613 74.77337686 314.04546744 74.78131914 C310.17339711 74.79799649 306.30172182 74.78977357 302.42965019 74.77737427 C298.25031493 74.76831959 294.07104733 74.78229551 289.89172554 74.79329395 C281.70837706 74.81107885 273.52517535 74.80723947 265.34182113 74.79564339 C258.69156911 74.78660984 252.04135823 74.78538473 245.39110184 74.78973866 C244.44460906 74.79035159 243.49811628 74.79096452 242.52294191 74.79159603 C240.60017302 74.79287492 238.67740414 74.79417178 236.75463528 74.79548639 C218.72592786 74.80689194 200.6973018 74.79377855 182.66860772 74.77228492 C167.19707676 74.75441107 151.72566584 74.75752047 136.25413704 74.77595997 C118.2883936 74.79736213 100.32272144 74.80579636 82.35696703 74.79351091 C80.44157733 74.79223671 78.52618761 74.79097923 76.61079788 74.78973866 C75.19717309 74.788813 75.19717309 74.788813 73.75499023 74.78786865 C67.11173838 74.784414 60.46853172 74.79024651 53.82528687 74.79965687 C45.7308686 74.81087082 37.6366055 74.80784941 29.54220503 74.78653389 C25.4118077 74.77601576 21.28166918 74.77191457 17.15127373 74.7851305 C13.37064369 74.79704445 9.59051251 74.79050882 5.80992777 74.76922029 C3.79359006 74.76263129 1.77721776 74.77569921 -0.23908383 74.78944921 C-8.07505083 74.72127553 -11.93059452 74.14196496 -17.57667351 68.65681934 C-20.81850382 64.59097864 -22.04990816 61.84045209 -22.09327507 56.69466114 C-22.10288261 55.77327854 -22.11249016 54.85189594 -22.12238884 53.90259266 C-22.12663872 52.90883121 -22.1308886 51.91506977 -22.13526726 50.89119434 C-22.14096733 49.86645512 -22.1466674 48.84171589 -22.15254021 47.78592396 C-22.1619894 45.61635336 -22.16852387 43.44676842 -22.17237663 41.27718067 C-22.18207391 37.96531964 -22.21309507 34.65408138 -22.24464226 31.34236622 C-22.25117332 29.23364594 -22.25642338 27.12492123 -22.26026726 25.01619434 C-22.27261406 24.02850559 -22.28496086 23.04081684 -22.29768181 22.02319813 C-22.27755028 15.77907892 -21.60574841 11.28413099 -17.31886101 6.42635059 C-16.75811882 5.95713184 -16.19737663 5.48791309 -15.61964226 5.00447559 C-15.06663445 4.52494434 -14.51362663 4.04541309 -13.94386101 3.55135059 C-9.56127959 0.7260748 -5.1349477 0.00441554 0 0 Z " fill="#000000" transform="translate(167.93214225769043,53.745524406433105)"/>
</svg>
