<?xml version="1.0" encoding="UTF-8"?>
<svg version="1.1" xmlns="http://www.w3.org/2000/svg" width="512" height="512">
<path d="M0 0 C1.24440974 -0.00917004 1.24440974 -0.00917004 2.51395908 -0.01852533 C5.29427898 -0.03412763 8.07372688 -0.02125832 10.85405064 -0.00850582 C12.86729824 -0.01383088 14.88054187 -0.02089633 16.89377791 -0.02955288 C22.42657082 -0.04821231 27.95909666 -0.04186376 33.4919008 -0.03139985 C39.45860889 -0.02441725 45.42526159 -0.04039863 51.39195347 -0.05339718 C62.40544231 -0.07380588 73.41885398 -0.07585175 84.43235493 -0.06818072 C94.60730933 -0.0611084 104.78223213 -0.06105004 114.9571867 -0.06804371 C116.32195243 -0.06895504 117.68671816 -0.0698658 119.05148389 -0.070776 C121.1080515 -0.07215913 123.16461911 -0.07355021 125.22118671 -0.07496213 C144.34147883 -0.08794317 163.46176037 -0.09305687 182.58205414 -0.08142853 C183.66321206 -0.08077157 183.66321206 -0.08077157 184.76621155 -0.08010134 C190.61941992 -0.0764945 196.47262814 -0.07265974 202.32583636 -0.06881041 C225.15881756 -0.05396222 247.99167915 -0.06274301 270.82464695 -0.09076595 C296.47766074 -0.12218973 322.13060371 -0.13716524 347.78363711 -0.12696594 C350.51858046 -0.12592916 353.25352383 -0.12494193 355.98846722 -0.12398243 C356.99858604 -0.1236091 356.99858604 -0.1236091 358.0291113 -0.12322823 C368.19684633 -0.11978742 378.36451885 -0.1290971 388.53224087 -0.14475346 C400.09460375 -0.16251634 411.65681697 -0.16219177 423.21917432 -0.1394018 C429.11991509 -0.12823924 435.02036918 -0.125143 440.92109776 -0.14370251 C446.32157878 -0.16047021 451.72152225 -0.15420613 457.12196822 -0.12948572 C459.07679852 -0.12458988 461.03167189 -0.1281521 462.98646628 -0.14097316 C465.64283572 -0.15713993 468.29734296 -0.14252482 470.95362854 -0.12025452 C471.71353207 -0.13224619 472.47343561 -0.14423787 473.25636652 -0.15659294 C479.04646811 -0.0573959 483.05834462 1.85547014 487.53973484 5.50615788 C492.11682986 11.28641642 492.12848495 16.46345187 492.07098484 23.66240788 C492.07481174 24.72350773 492.07863865 25.78460758 492.08258152 26.87786198 C492.08529438 29.11350806 492.07797724 31.34918623 492.06121922 33.58477116 C492.03980184 36.99548847 492.06104347 40.40409938 492.08660984 43.81475163 C492.08396645 45.99314166 492.07884126 48.1715304 492.07098484 50.34990788 C492.07908176 51.36363468 492.08717869 52.37736149 492.09552097 53.42180729 C491.99713571 60.89625834 490.64297696 65.40291575 485.22723484 70.81865788 C479.58340618 74.36245727 473.71909681 74.79885251 467.20440865 74.76063347 C465.98025939 74.76544319 465.98025939 74.76544319 464.73137984 74.77035007 C461.99722473 74.77865025 459.26328867 74.7727257 456.52912998 74.76685429 C454.5488845 74.76987495 452.56864017 74.77376401 450.58839792 74.77844685 C445.14688278 74.7887464 439.70543338 74.78654004 434.2639128 74.78226626 C428.39538173 74.77980261 422.52686665 74.78880867 416.65834141 74.79630375 C405.16162555 74.80906255 393.66493303 74.81084299 382.16821129 74.80850349 C372.82538524 74.80667073 363.48256437 74.80843006 354.13973904 74.81272793 C352.79740047 74.81333033 351.4550619 74.81393153 350.11272333 74.81453153 C348.08994694 74.81543878 346.06717055 74.81634745 344.04439417 74.81726388 C325.23847145 74.82569311 306.43255131 74.83002928 287.62662697 74.82585716 C286.56326337 74.8256226 286.56326337 74.8256226 285.47841768 74.8253833 C281.8853935 74.82457751 278.29236934 74.82373174 274.69934518 74.82286999 C273.9857601 74.82269891 273.27217501 74.82252782 272.53696614 74.82235155 C271.09392432 74.82200489 269.6508825 74.82165636 268.20784068 74.82130596 C245.75082959 74.81594798 223.29385775 74.82388148 200.83685398 74.84233952 C175.60575385 74.86305337 150.37467804 74.87378347 125.14356893 74.86976403 C122.45356143 74.86936868 119.76355392 74.86900714 117.07354641 74.86866665 C116.41119907 74.86857592 115.74885172 74.86848519 115.06643325 74.8683917 C105.06616457 74.86722556 95.0659235 74.8739114 85.06566143 74.88447857 C73.69363984 74.89637351 62.32167605 74.89781842 50.94965369 74.8856884 C45.14618775 74.87978664 39.34282762 74.87873614 33.53936863 74.8906908 C28.22783077 74.90150515 22.91648764 74.89849935 17.60495906 74.88442912 C15.68242775 74.88176992 13.7598814 74.88418689 11.8373648 74.89216498 C9.22497515 74.90225432 6.61326457 74.8938634 4.00090218 74.88088799 C3.25383341 74.88819733 2.50676464 74.89550668 1.73705742 74.90303752 C-5.56044829 74.82786479 -12.17879204 72.787631 -17.46026516 67.50615788 C-21.08045388 61.99339783 -20.92775149 56.85544648 -20.92901516 50.48272038 C-20.93662868 49.42257725 -20.94424221 48.36243412 -20.95208645 47.27016544 C-20.96286738 45.03277275 -20.96574874 42.79532981 -20.96124172 40.55791569 C-20.96027029 37.14917687 -21.00189919 33.74269655 -21.04620266 30.33428288 C-21.05141084 28.15460004 -21.05409783 25.97490943 -21.05401516 23.79522038 C-21.07041042 22.7835178 -21.08680569 21.77181522 -21.10369778 20.72945499 C-21.04165913 14.32221948 -20.15116674 9.16307332 -15.46026516 4.50615788 C-10.0968665 0.88992767 -6.40168491 -0.07624812 0 0 Z " fill="#000000" transform="translate(20.460265159606934,383.49384212493896)"/>
<path d="M0 0 C1.13756262 -0.00480972 1.13756262 -0.00480972 2.29810631 -0.0097166 C4.84793626 -0.01804034 7.39753277 -0.01208403 9.94736671 -0.00622082 C11.79048048 -0.00924042 13.633593 -0.01312894 15.47670329 -0.01781338 C20.54841723 -0.02812682 25.62006075 -0.02590306 30.69178057 -0.02163279 C36.1588248 -0.01917162 41.62585181 -0.02817215 47.09288979 -0.03567028 C57.80614507 -0.04843635 68.51937531 -0.05020859 79.23263691 -0.04787002 C87.93860178 -0.04608881 96.64455904 -0.04783226 105.35052299 -0.05209446 C106.58841096 -0.05268965 107.82629892 -0.05328484 109.10169864 -0.05389806 C111.61626986 -0.05510978 114.13084107 -0.05632392 116.64541228 -0.05754044 C137.55132692 -0.06718285 158.45723195 -0.06761682 179.36314742 -0.06223653 C180.02816137 -0.06206544 180.69317532 -0.06189435 181.37834121 -0.06171808 C182.72316134 -0.06137142 184.06798148 -0.06102289 185.41280161 -0.06067249 C206.33886024 -0.05531512 227.26487674 -0.06324562 248.19092751 -0.08170605 C271.69740509 -0.10241854 295.20386251 -0.11311909 318.71035063 -0.10913056 C331.15807811 -0.10721595 343.60576719 -0.10973137 356.05348778 -0.1238451 C366.65044638 -0.13573851 377.24734297 -0.13718675 387.8443024 -0.12505493 C393.25270632 -0.11915187 398.66099669 -0.11810618 404.06939316 -0.13005733 C409.0188974 -0.1408675 413.96819263 -0.13787097 418.91768689 -0.12379565 C420.70970923 -0.12113526 422.5017477 -0.1235571 424.29375426 -0.13153151 C426.72776152 -0.14161231 429.16103865 -0.13323751 431.59501648 -0.12025452 C432.29234056 -0.12756386 432.98966464 -0.13487321 433.70811975 -0.14240405 C439.51835153 -0.07807232 444.17406664 1.29139191 448.60303688 5.15681934 C449.16249001 5.82842091 449.72194313 6.50002247 450.29834938 7.19197559 C450.87327126 7.86099903 451.44819313 8.53002247 452.04053688 9.21931934 C454.30501314 12.55206547 454.54946368 15.75069104 454.60035133 19.71248341 C454.61318657 20.58729359 454.6260218 21.46210377 454.63924599 22.36342335 C454.65032639 23.77129108 454.65032639 23.77129108 454.66163063 25.20760059 C454.66970238 26.18178944 454.67777412 27.15597828 454.68609047 28.159688 C454.69990945 30.22072551 454.71064136 32.2817857 454.7185154 34.3428545 C454.7300325 36.44350897 454.75047994 38.54413424 454.78003883 40.64461231 C454.82284056 43.68664321 454.83890235 46.72780545 454.84913063 49.77010059 C454.86663872 50.70058216 454.8841468 51.63106373 454.90218544 52.58974171 C454.87916758 59.57179942 453.77351135 64.75472118 448.8441841 69.90415424 C441.20364022 75.93520835 432.52598881 75.0817323 423.29769325 74.99619007 C421.43803347 75.00095785 419.57837888 75.00835214 417.71873873 75.0181393 C412.6196938 75.03734761 407.5213654 75.01920176 402.42236769 74.99484646 C396.9192693 74.97508933 391.41624988 74.98996644 385.91314125 75.00049305 C375.13784008 75.01560997 364.36281535 74.99870644 353.58754853 74.97094215 C341.04245561 74.93977992 328.49742236 74.94000096 315.95229801 74.94145989 C292.89644197 74.94300683 269.84071312 74.91290486 246.78491262 74.86795257 C225.73736862 74.8270671 204.68992689 74.80836941 183.64234352 74.8103838 C182.29043334 74.81050503 180.93852316 74.81062611 179.58661298 74.81074703 C178.91825333 74.81080809 178.24989369 74.81086914 177.56128072 74.81093204 C174.1968441 74.81123443 170.83240748 74.81150617 167.46797085 74.81174278 C166.80421718 74.81179292 166.14046352 74.81184306 165.45659611 74.81189472 C144.09286335 74.81322511 122.72914937 74.79186849 101.36543146 74.76865425 C92.61722197 74.75960012 83.86902131 74.75641498 75.12080765 74.75505733 C64.46461082 74.75301242 53.80849518 74.73963887 43.15233282 74.71205891 C37.71365798 74.69819445 32.27508707 74.6890723 26.83639336 74.69284153 C21.86055865 74.69612283 16.88495397 74.68559524 11.90916725 74.66389596 C10.10652327 74.65844941 8.30385559 74.65807149 6.50121067 74.66319782 C4.05530432 74.66938471 1.61015382 74.65721539 -0.83568668 74.64037895 C-1.53930742 74.64654491 -2.24292816 74.65271086 -2.96787074 74.65906367 C-8.39263033 74.59062146 -12.46334325 73.24373138 -16.43993187 69.50056934 C-17.15729515 68.60531544 -17.15729515 68.60531544 -17.88915062 67.69197559 C-18.62584984 66.7928545 -18.62584984 66.7928545 -19.37743187 65.87556934 C-21.50541785 62.99897592 -21.70937613 61.15237692 -21.73778343 57.62459278 C-21.75219475 56.18234333 -21.75219475 56.18234333 -21.7668972 54.71095753 C-21.77114708 53.66828724 -21.77539696 52.62561695 -21.77977562 51.55135059 C-21.78547569 50.48080433 -21.79117577 49.41025806 -21.79704857 48.307271 C-21.80650825 46.03756673 -21.81303638 43.76784866 -21.81688499 41.49812794 C-21.82657214 38.03255013 -21.85757937 34.5675699 -21.88915062 31.10213184 C-21.89568242 28.89770828 -21.9009322 26.69328048 -21.90477562 24.48885059 C-21.91712242 23.45427723 -21.92946922 22.41970387 -21.94219017 21.35377979 C-21.92539694 15.90296921 -21.71536462 11.92652251 -18.57665062 7.25447559 C-12.6644324 1.59931034 -8.05102685 -0.0504215 0 0 Z " fill="#000000" transform="translate(21.576650619506836,163.7455244064331)"/>
<path d="M0 0 C1.31079629 -0.00445784 2.62159258 -0.00891569 3.97210997 -0.01350862 C5.43554541 -0.01341932 6.89898085 -0.01322946 8.36241627 -0.01294994 C9.91022977 -0.0162484 11.45804241 -0.01997393 13.00585395 -0.02409142 C17.27062405 -0.03412158 21.53538007 -0.03782985 25.80016029 -0.04048073 C30.39540162 -0.04438077 34.99063177 -0.0539593 39.58586597 -0.0626936 C50.68893787 -0.08246637 61.79201069 -0.09252518 72.8950958 -0.10142139 C78.12160773 -0.10580289 83.34811865 -0.11117005 88.57462978 -0.11641026 C105.94505287 -0.13342323 123.31547532 -0.14791796 140.68590546 -0.155159 C145.1947597 -0.15706894 149.70361393 -0.15898927 154.21246815 -0.16094494 C155.33314431 -0.16142868 156.45382048 -0.16191242 157.60845653 -0.16241082 C175.76736562 -0.17071317 193.92620889 -0.19605324 212.08508923 -0.22852562 C230.72138867 -0.26158049 249.35765465 -0.27960633 267.99398357 -0.28280324 C278.46045056 -0.28496977 288.92682155 -0.29373946 299.39326 -0.31926441 C308.30601922 -0.34094992 317.21865913 -0.34903241 326.13144173 -0.33929763 C330.67927037 -0.33474672 335.22685271 -0.33668507 339.77464771 -0.35605907 C343.93915582 -0.37364709 348.10323716 -0.37272866 352.26774953 -0.35716178 C353.77318098 -0.35477906 355.27864165 -0.35914368 356.78402837 -0.37099043 C373.00400073 -0.49071384 373.00400073 -0.49071384 379.62091541 5.91547108 C379.98314198 6.48265858 380.34536854 7.04984608 380.71857166 7.63422108 C381.0988451 8.20140858 381.47911854 8.76859608 381.87091541 9.35297108 C383.55714924 12.65306818 383.90981785 15.83062392 383.95807362 19.50043201 C383.97090885 20.35522144 383.98374409 21.21001087 383.99696827 22.09070301 C384.00804867 23.46576008 384.00804867 23.46576008 384.01935291 24.86859608 C384.02742466 25.82058887 384.03549641 26.77258167 384.04381275 27.75342274 C384.05763056 29.76738139 384.06836299 31.78136323 384.07623768 33.79535389 C384.08775387 35.84750738 384.1081999 37.89963101 384.13776112 39.95160389 C384.18057445 42.92414073 384.19662615 45.89578862 384.20685291 48.86859608 C384.224361 49.77720387 384.24186909 50.68581165 384.25990772 51.62195301 C384.23764651 58.2221524 382.95790337 63.7016899 378.36891651 68.66003895 C373.34605262 73.10281017 368.93888975 74.38327095 362.34728241 74.39148998 C361.03947081 74.39793887 359.73165922 74.40438777 358.38421696 74.41103208 C356.93452617 74.40808985 355.48483576 74.40495442 354.03514576 74.40164661 C352.49385442 74.40538298 350.95256498 74.40998444 349.41127855 74.41537726 C345.17380989 74.42762443 340.93642009 74.42734477 336.69893777 74.42498851 C332.12962872 74.42458078 327.5603451 74.43561532 322.99104786 74.44510365 C314.03810292 74.46172402 305.08518431 74.46721366 296.13222524 74.4683284 C288.8555207 74.46927838 281.57882486 74.47338618 274.30212307 74.47972965 C253.67594908 74.49734488 233.04979591 74.50656808 212.42361435 74.5050687 C211.3114068 74.50498879 210.19919926 74.50490888 209.05328846 74.50482655 C207.38294256 74.5047039 207.38294256 74.5047039 205.6788523 74.50457878 C187.62999697 74.5037658 169.58122508 74.52290587 151.5323939 74.55110328 C133.0045077 74.57982094 114.4766622 74.59364419 95.94875318 74.59191573 C85.54491994 74.59125144 75.14117416 74.5967607 64.73736095 74.61827183 C55.87954005 74.6364689 47.02184626 74.64084308 38.16401478 74.62725298 C33.64453026 74.62071589 29.12528971 74.62063281 24.60582829 74.63795948 C20.46729712 74.65366258 16.32920394 74.65085503 12.19068364 74.63339122 C10.6947364 74.63031521 9.1987567 74.63397636 7.70284774 74.64511137 C-8.41041059 74.7570946 -8.41041059 74.7570946 -14.76115733 68.65153348 C-18.26461685 64.68469923 -19.33568916 61.56615778 -19.39593029 56.39081287 C-19.40876553 55.42938877 -19.42160076 54.46796467 -19.43482494 53.4774065 C-19.44221188 52.4398975 -19.44959881 51.4023885 -19.45720959 50.33343983 C-19.46528133 49.26430851 -19.47335308 48.19517719 -19.48166943 47.09364796 C-19.49550425 44.82992643 -19.50622909 42.5661841 -19.51409435 40.30243397 C-19.53130957 36.84556933 -19.5752025 33.38966047 -19.61931896 29.9330492 C-19.62944587 27.73318644 -19.63796198 25.53331555 -19.64470959 23.33343983 C-19.66221767 22.30200352 -19.67972576 21.27056721 -19.6977644 20.20787525 C-19.67634429 13.09938548 -18.61873239 9.63377488 -13.62127209 4.48968983 C-8.90541222 0.72957756 -5.93936601 0.00934526 0 0 Z " fill="#000000" transform="translate(19.218928337097168,273.86577892303467)"/>
<path d="M0 0 C1.37802527 -0.00302268 2.75604886 -0.00691275 4.1340695 -0.01159257 C7.91096384 -0.02186619 11.68776319 -0.01969238 15.46466529 -0.01541197 C19.54177171 -0.01294362 23.61885532 -0.02196024 27.69595337 -0.02944946 C35.67940548 -0.04219513 43.66282395 -0.04399034 51.64628451 -0.0416492 C58.13537434 -0.03986584 64.62445395 -0.04161606 71.11354256 -0.04587364 C72.49911122 -0.04676643 72.49911122 -0.04676643 73.91267117 -0.04767724 C75.78921258 -0.048889 77.66575399 -0.05010313 79.5422954 -0.05131962 C97.13801904 -0.06219451 114.73372351 -0.06003282 132.32944823 -0.05393478 C148.42527372 -0.04876486 164.5210387 -0.06002312 180.61685222 -0.07903299 C197.14693958 -0.09840602 213.67699832 -0.10666839 230.20709711 -0.10290974 C239.48635096 -0.10099699 248.76555331 -0.10349257 258.0447979 -0.11762428 C265.94369642 -0.12953217 273.84251172 -0.13094957 281.74141138 -0.11883412 C285.77076042 -0.11294146 289.79995718 -0.11185667 293.82929611 -0.12383652 C297.51989313 -0.13468167 301.21021048 -0.13160842 304.90079433 -0.11757483 C306.86396302 -0.11367113 308.82714407 -0.12448613 310.79028362 -0.13587171 C318.29250178 -0.08986146 324.84826979 0.12658049 330.8094635 5.19819641 C331.35731506 5.87882141 331.90516663 6.55944641 332.46961975 7.26069641 C333.03551819 7.94132141 333.60141663 8.62194641 334.1844635 9.32319641 C336.36616677 12.4597901 336.66197631 15.10936171 336.69325256 18.82051086 C336.70286011 19.74189346 336.71246765 20.66327606 336.72236633 21.61257935 C336.72874115 23.10322151 336.72874115 23.10322151 336.73524475 24.62397766 C336.74094482 25.64871689 336.7466449 26.67345612 336.7525177 27.72924805 C336.7619669 29.89881864 336.76850136 32.06840358 336.77235413 34.23799133 C336.7820514 37.54985237 336.81307256 40.86109063 336.84461975 44.17280579 C336.85115081 46.28152606 336.85640088 48.39025077 336.86024475 50.49897766 C336.87259155 51.48666641 336.88493835 52.47435516 336.8976593 53.49197388 C336.87745306 59.75926509 336.25685287 64.36604675 331.7782135 69.12397766 C331.18137756 69.60221985 330.58454163 70.08046204 329.96961975 70.57319641 C329.37020569 71.06432922 328.77079163 71.55546204 328.1532135 72.06147766 C324.99233224 74.39976814 322.85854637 74.38893821 318.96722984 74.3977108 C317.18167515 74.40532261 317.18167515 74.40532261 315.36004865 74.4130882 C313.38091614 74.41383484 313.38091614 74.41383484 311.36180115 74.41459656 C309.95509361 74.4186098 308.54838724 74.42304779 307.14168227 74.42787611 C303.26230846 74.43986319 299.38294711 74.44549501 295.5035584 74.45005727 C291.3247974 74.45600538 287.14605135 74.46761728 282.96730042 74.47834778 C272.86790206 74.50289124 262.76849874 74.51750244 252.66907972 74.53040785 C249.81734509 74.53411857 246.96561096 74.53809191 244.11387682 74.54216051 C226.41211144 74.56739747 208.71034531 74.58945472 191.0085659 74.60188866 C186.90655388 74.60481845 182.80454187 74.6077801 178.70252991 74.61079407 C177.68296914 74.61154012 176.66340838 74.61228617 175.61295183 74.61305483 C159.09645575 74.62570857 142.58006732 74.65893054 126.06362157 74.7005959 C109.11333288 74.74300572 92.16309931 74.76658266 75.21275771 74.77180922 C65.69304345 74.77522459 56.17349737 74.78699439 46.6538353 74.81991196 C38.54618277 74.84790065 30.43873287 74.85891705 22.33103578 74.8477165 C18.19427452 74.84252664 14.05793767 74.8454374 9.92123795 74.87018204 C6.13222761 74.89265761 2.34394694 74.89194851 -1.44507603 74.87297817 C-3.46120205 74.86885056 -5.47733236 74.88933648 -7.49334872 74.91076505 C-14.70059281 74.84758634 -20.0124377 74.26367995 -25.46788025 69.26069641 C-30.04497526 63.48043786 -30.05663035 58.30340242 -29.99913025 51.10444641 C-30.00295715 50.04334656 -30.00678406 48.9822467 -30.01072693 47.88899231 C-30.01343979 45.65334622 -30.00612265 43.41766805 -29.98936462 41.18208313 C-29.96794725 37.77136582 -29.98918888 34.3627549 -30.01475525 30.95210266 C-30.01211186 28.77371262 -30.00698667 26.59532389 -29.99913025 24.41694641 C-30.00722717 23.4032196 -30.0153241 22.3894928 -30.02366638 21.345047 C-29.92528112 13.87059594 -28.57112237 9.36393853 -23.15538025 3.94819641 C-15.93050082 -0.58835579 -8.27124539 -0.02454187 0 0 Z " fill="#000000" transform="translate(29.467880249023438,53.73930358886719)"/>
</svg>
