<?xml version="1.0" encoding="UTF-8"?>
<svg version="1.1" xmlns="http://www.w3.org/2000/svg" width="512" height="512">
<path d="M0 0 C1.24440974 -0.00917004 1.24440974 -0.00917004 2.51395908 -0.01852533 C5.29427898 -0.03412763 8.07372688 -0.02125832 10.85405064 -0.00850582 C12.86729824 -0.01383088 14.88054187 -0.02089633 16.89377791 -0.02955288 C22.42657082 -0.04821231 27.95909666 -0.04186376 33.4919008 -0.03139985 C39.45860889 -0.02441725 45.42526159 -0.04039863 51.39195347 -0.05339718 C62.40544231 -0.07380588 73.41885398 -0.07585175 84.43235493 -0.06818072 C94.60730933 -0.0611084 104.78223213 -0.06105004 114.9571867 -0.06804371 C116.32195243 -0.06895504 117.68671816 -0.0698658 119.05148389 -0.070776 C121.1080515 -0.07215913 123.16461911 -0.07355021 125.22118671 -0.07496213 C144.34147883 -0.08794317 163.46176037 -0.09305687 182.58205414 -0.08142853 C183.66321206 -0.08077157 183.66321206 -0.08077157 184.76621155 -0.08010134 C190.61941992 -0.0764945 196.47262814 -0.07265974 202.32583636 -0.06881041 C225.15881756 -0.05396222 247.99167915 -0.06274301 270.82464695 -0.09076595 C296.47766074 -0.12218973 322.13060371 -0.13716524 347.78363711 -0.12696594 C350.51858046 -0.12592916 353.25352383 -0.12494193 355.98846722 -0.12398243 C356.99858604 -0.1236091 356.99858604 -0.1236091 358.0291113 -0.12322823 C368.19684633 -0.11978742 378.36451885 -0.1290971 388.53224087 -0.14475346 C400.09460375 -0.16251634 411.65681697 -0.16219177 423.21917432 -0.1394018 C429.11991509 -0.12823924 435.02036918 -0.125143 440.92109776 -0.14370251 C446.32157878 -0.16047021 451.72152225 -0.15420613 457.12196822 -0.12948572 C459.07679852 -0.12458988 461.03167189 -0.1281521 462.98646628 -0.14097316 C465.64283572 -0.15713993 468.29734296 -0.14252482 470.95362854 -0.12025452 C471.71353207 -0.13224619 472.47343561 -0.14423787 473.25636652 -0.15659294 C479.04613208 -0.05740166 483.05897412 1.85494986 487.53973484 5.50615788 C492.09953027 11.27376835 492.14138939 16.44529527 492.10614109 23.62725163 C492.11233967 24.6859798 492.11853825 25.74470798 492.12492466 26.83551884 C492.1320053 29.06694975 492.12887965 31.29843368 492.11615086 33.52983952 C492.10229115 36.92984321 492.13637816 40.32708956 492.17450047 43.726861 C492.17545183 45.90199188 492.17359191 48.07712617 492.16864109 50.25225163 C492.1818993 51.26081715 492.19515751 52.26938267 492.20881748 53.30851078 C492.12319631 59.851943 490.96951893 64.53697731 486.53973484 69.50615788 C480.5480582 74.12453656 474.89317083 74.65468852 467.57355213 74.63758564 C466.76091416 74.63963827 465.94827618 74.64169091 465.11101282 74.64380574 C462.37062466 74.64948882 459.63028656 74.64801688 456.88989353 74.64659977 C454.91223809 74.64918265 452.93458316 74.6521956 450.95692897 74.65560317 C445.50865324 74.6636854 440.06039068 74.66546342 434.61210966 74.66620064 C428.74148453 74.66804906 422.87086627 74.6755953 417.00024509 74.68233585 C403.4875177 74.69663711 389.97479212 74.70244674 376.46205856 74.7070278 C369.78532431 74.70936343 363.10859082 74.71296603 356.43185724 74.71672318 C333.57891288 74.72955858 310.72596901 74.74027801 287.87302113 74.74372578 C286.43837424 74.74394741 285.00372735 74.74416919 283.56908046 74.74439113 C282.1309603 74.74461177 280.69284013 74.74483225 279.25471997 74.74505258 C276.3695817 74.74549513 273.48444343 74.74594224 270.59930515 74.74639225 C269.88395828 74.74650164 269.1686114 74.74661103 268.43158735 74.74672374 C245.23335485 74.75035485 222.0351536 74.76627698 198.83693307 74.78958261 C174.31314697 74.81417493 149.78937873 74.82789833 125.26557994 74.82909369 C122.57384061 74.82926515 119.8821013 74.82948058 117.19036198 74.82972813 C116.52757513 74.8297839 115.86478829 74.82983966 115.18191699 74.82989712 C105.17371696 74.83097678 95.16554641 74.84034205 85.15735722 74.85391331 C73.77428753 74.8692943 62.39127139 74.87444657 51.00819328 74.8661752 C45.19866962 74.86226168 39.38925385 74.86323261 33.57974339 74.87723255 C28.26253927 74.88992914 22.9455246 74.88881129 17.6283209 74.87664184 C15.70367919 74.87467748 13.77902425 74.8777972 11.85440114 74.8864862 C9.23913109 74.89754667 6.62453342 74.89011285 4.00928211 74.87809467 C3.2613558 74.88568987 2.51342949 74.89328506 1.74283874 74.90111041 C-5.55764377 74.82864233 -12.17635651 72.79006653 -17.46026516 67.50615788 C-21.08045388 61.99339783 -20.92775149 56.85544648 -20.92901516 50.48272038 C-20.93662868 49.42257725 -20.94424221 48.36243412 -20.95208645 47.27016544 C-20.96286738 45.03277275 -20.96574874 42.79532981 -20.96124172 40.55791569 C-20.96027029 37.14917687 -21.00189919 33.74269655 -21.04620266 30.33428288 C-21.05141084 28.15460004 -21.05409783 25.97490943 -21.05401516 23.79522038 C-21.07041042 22.7835178 -21.08680569 21.77181522 -21.10369778 20.72945499 C-21.04165913 14.32221948 -20.15116674 9.16307332 -15.46026516 4.50615788 C-10.0968665 0.88992767 -6.40168491 -0.07624812 0 0 Z " fill="#000000" transform="translate(20.460265159606934,383.49384212493896)"/>
<path d="M0 0 C0.69475141 -0.00205263 1.38950283 -0.00410527 2.10530731 -0.0062201 C4.44466911 -0.01189646 6.78397216 -0.01043207 9.12333965 -0.00901413 C10.81297187 -0.01159739 12.50260347 -0.01461045 14.19223422 -0.01801753 C18.84433085 -0.0260952 23.49641205 -0.02787753 28.14851487 -0.028615 C33.16226277 -0.0304642 38.17600264 -0.03801081 43.1897459 -0.04475021 C54.15657035 -0.05833906 65.12339114 -0.06435899 76.0902226 -0.06876087 C82.93541654 -0.07152211 89.78060906 -0.07575922 96.62580204 -0.08026505 C115.57125574 -0.09245796 134.5167083 -0.10275754 153.46216583 -0.10614014 C154.67498503 -0.1063597 155.88780422 -0.10657927 157.13737551 -0.10680549 C158.35312357 -0.10702377 159.56887163 -0.10724204 160.82146055 -0.10746694 C163.28509859 -0.10791041 165.74873664 -0.10835697 168.21237469 -0.10880661 C169.43442856 -0.10902804 170.65648244 -0.10924947 171.91556825 -0.10947761 C191.72403905 -0.11342692 211.53247308 -0.13088492 231.34092966 -0.15416613 C251.66888464 -0.17786547 271.99682116 -0.19034133 292.32479018 -0.19150805 C303.74190121 -0.19242556 315.15896434 -0.19819701 326.5760622 -0.21632767 C336.29652491 -0.23170946 346.01692491 -0.23686045 355.73739747 -0.22858956 C360.69821748 -0.22467638 365.65891114 -0.22564528 370.61971569 -0.23964691 C375.16031748 -0.25234555 379.70069745 -0.25122394 384.24129876 -0.2390562 C385.88463279 -0.2370922 387.52798232 -0.24020997 389.17129455 -0.24890056 C391.40478472 -0.25996524 393.63748813 -0.2525248 395.87095642 -0.24050903 C397.11161277 -0.24110612 398.35226912 -0.24170321 399.63052112 -0.24231839 C405.54513159 0.39040652 410.12412113 2.41699945 413.99923992 7.06892776 C414.5741618 7.7379512 415.14908367 8.40697464 415.74142742 9.09627151 C418.00590368 12.42901764 418.25035422 15.62764321 418.30124187 19.58943558 C418.31407711 20.46424576 418.32691235 21.33905594 418.34013653 22.24037552 C418.35121693 23.64824326 418.35121693 23.64824326 418.36252117 25.08455276 C418.37059292 26.05874161 418.37866467 27.03293045 418.38698101 28.03664017 C418.40079999 30.09767768 418.4115319 32.15873787 418.41940594 34.21980667 C418.43092304 36.32046114 418.45137048 38.42108641 418.48092937 40.52156448 C418.5237311 43.56359538 418.53979289 46.60475762 418.55002117 49.64705276 C418.56752926 50.57753433 418.58503735 51.5080159 418.60307598 52.46669388 C418.58011493 59.43151823 417.50851518 64.70340032 412.49631691 69.7803967 C405.08950828 75.51316163 397.28833882 74.97177554 388.38547039 74.89332962 C386.67643763 74.90024837 384.9674138 74.90978127 383.25840855 74.92169309 C378.57562234 74.946697 373.89357155 74.93438076 369.210783 74.91577578 C364.15545688 74.90218843 359.10025635 74.92316032 354.04495525 74.9396553 C344.14698008 74.96632779 334.24927798 74.96057563 324.35129213 74.94317946 C316.30665217 74.92962626 308.26208871 74.9277927 300.21744061 74.93432236 C298.49966815 74.93570145 298.49966815 74.93570145 296.74719322 74.93710841 C294.42074058 74.93902677 292.09428797 74.94097205 289.76783538 74.94294396 C267.95533198 74.9600511 246.1429799 74.94038459 224.33050132 74.90814176 C205.61648945 74.8813354 186.90270089 74.8859916 168.18869305 74.91365433 C146.45397356 74.94576719 124.71938669 74.95840316 102.9846468 74.93998075 C100.66677763 74.93806946 98.34890844 74.93618324 96.03103924 74.93432236 C94.89061889 74.9333967 93.75019853 74.93247105 92.57521999 74.93151735 C84.54072598 74.92633793 76.50631612 74.9350787 68.47183514 74.94919968 C58.67972955 74.96603154 48.88791253 74.96146585 39.09583998 74.92951521 C34.1001936 74.91375183 29.10502825 74.90756215 24.10938549 74.92741013 C19.53469157 74.9453107 14.96092377 74.93542999 10.38631368 74.90354481 C8.73301076 74.89685168 7.07962934 74.90023222 5.42637706 74.91479954 C-2.73737443 74.98120573 -9.49335708 75.00804858 -16.24826622 69.78104043 C-21.22229299 64.73941308 -22.33198814 59.45890571 -22.40589619 52.54364395 C-22.39466221 51.62257355 -22.38342823 50.70150314 -22.37185383 49.75252151 C-22.37330906 48.78162079 -22.37476429 47.81072006 -22.37626362 46.8103981 C-22.37461199 44.76902117 -22.36313388 42.72763082 -22.34231281 40.68635941 C-22.31331116 37.57440857 -22.32172958 34.46415946 -22.33474445 31.35213089 C-22.32850733 29.36058621 -22.32011659 27.36904687 -22.30935383 25.37752151 C-22.31228947 24.45442688 -22.31522511 23.53133224 -22.3182497 22.58026505 C-22.22393616 16.07727332 -21.39225536 11.01480429 -16.97341633 5.95174026 C-16.30181477 5.39228714 -15.6302132 4.83283401 -14.93826008 4.25642776 C-14.26923664 3.68150589 -13.6002132 3.10658401 -12.91091633 2.51424026 C-8.85589175 -0.24099717 -4.80306795 0.00482758 0 0 Z " fill="#000000" transform="translate(57.875760078430176,163.86857223510742)"/>
<path d="M0 0 C1.08570695 -0.00538554 2.1714139 -0.01077108 3.29002106 -0.01631981 C6.92882434 -0.03062967 10.56726539 -0.02348796 14.20608521 -0.01637268 C16.81464938 -0.02207466 19.42321106 -0.02903825 22.0317688 -0.03717041 C28.38240315 -0.05435828 34.73293856 -0.0551984 41.08359013 -0.04995751 C46.24643241 -0.04591425 51.40924546 -0.04736121 56.57208633 -0.05270576 C57.3072097 -0.05345419 58.04233307 -0.05420261 58.7997329 -0.05497371 C60.29319985 -0.05650521 61.7866668 -0.05804356 63.28013374 -0.05958868 C77.28295409 -0.07331388 91.28571856 -0.06787608 105.28853764 -0.05640347 C118.09299619 -0.04647287 130.89731019 -0.05940867 143.70174645 -0.08333766 C156.85533442 -0.10773355 170.00885508 -0.11733522 183.16246521 -0.11068493 C190.54480385 -0.10719356 197.92703136 -0.10941922 205.30935287 -0.12693596 C212.25167532 -0.14320454 219.19371736 -0.1384686 226.1360321 -0.11963081 C228.68374198 -0.11594004 231.23147224 -0.11906753 233.77916336 -0.1295166 C237.25771737 -0.142694 240.73535274 -0.13120633 244.21386719 -0.11352539 C245.72526238 -0.1279329 245.72526238 -0.1279329 247.26719081 -0.14263147 C254.2328786 -0.0698125 259.94419513 1.20272616 265.07376099 6.16893005 C265.43598755 6.73611755 265.79821411 7.30330505 266.17141724 7.88768005 C266.55169067 8.45486755 266.93196411 9.02205505 267.32376099 9.60643005 C269.00999481 12.90652716 269.36266342 16.0840829 269.41091919 19.75389099 C269.42375443 20.60868042 269.43658966 21.46346985 269.44981384 22.34416199 C269.46089424 23.71921906 269.46089424 23.71921906 269.47219849 25.12205505 C269.48027023 26.07404785 269.48834198 27.02604065 269.49665833 28.00688171 C269.51047613 30.02084037 269.52120857 32.03482221 269.52908325 34.04881287 C269.54059945 36.10096636 269.56104548 38.15308998 269.59060669 40.20506287 C269.63342002 43.17759971 269.64947173 46.1492476 269.65969849 49.12205505 C269.67720657 50.03066284 269.69471466 50.93927063 269.7127533 51.87541199 C269.69049209 58.47561138 268.41074894 63.95514887 263.82176208 68.91349792 C257.46322509 74.5376848 251.7580891 74.67999564 243.66401672 74.65510559 C242.5873313 74.6596367 241.51064588 74.66416782 240.40133363 74.66883624 C236.78713515 74.68151441 233.17308669 74.67985764 229.55886841 74.6782074 C226.97015692 74.68419051 224.38144721 74.69099555 221.79273987 74.69856262 C215.48677469 74.71516837 209.1808469 74.72067198 202.87486168 74.72178738 C197.74823218 74.72273808 192.621615 74.72684949 187.4949894 74.73318863 C172.95594169 74.75080011 158.41692349 74.76002768 143.87786504 74.75852768 C143.09422701 74.75844777 142.31058898 74.75836786 141.50320435 74.75828552 C140.71860804 74.75820376 139.93401173 74.758122 139.12563977 74.75803776 C126.41165371 74.75722495 113.69778614 74.77636156 100.98383435 74.80456226 C87.92520567 74.8332986 74.86663478 74.84710213 61.80797368 74.8453747 C54.47814989 74.84471105 47.14845031 74.8501926 39.81865501 74.8717308 C32.92478315 74.89185843 26.03117765 74.8912612 19.13729286 74.87669754 C16.60731753 74.87460404 14.07732592 74.87934241 11.54737854 74.89141846 C8.09286583 74.90683941 4.63926163 74.89758239 1.18476868 74.88215637 C-0.31597685 74.89758706 -0.31597685 74.89758706 -1.84704047 74.91332948 C-8.60780058 74.84664285 -14.20233663 73.69112044 -19.28922397 68.97579324 C-24.72471016 62.84168407 -25.07465699 57.34145786 -25.06686401 49.52049255 C-25.07114914 48.56754303 -25.07543427 47.61459351 -25.07984924 46.63276672 C-25.08558165 44.62057793 -25.08610084 42.60836842 -25.08175659 40.59617615 C-25.07860082 37.53022077 -25.10205509 34.46523471 -25.12741089 31.3993988 C-25.12968453 29.4397646 -25.13038708 27.48012781 -25.12936401 25.52049255 C-25.13857376 24.60986053 -25.14778351 23.69922852 -25.15727234 22.76100159 C-25.10743832 15.84652166 -24.018155 11.06582001 -19.45358276 5.63768005 C-13.13273589 0.34580825 -7.93916269 -0.04714623 0 0 Z " fill="#000000" transform="translate(133.76608276367188,273.61231994628906)"/>
<path d="M0 0 C0.76718987 -0.00382555 1.53437973 -0.00765109 2.32481778 -0.01159257 C4.88565253 -0.02187956 7.44626126 -0.01793863 10.0071106 -0.01396179 C11.84721076 -0.01831066 13.68730912 -0.0234944 15.52740479 -0.02944946 C20.51918341 -0.04283227 25.51088628 -0.04341889 30.50267935 -0.04088616 C34.67261333 -0.0398159 38.84253203 -0.04470127 43.01246274 -0.04949158 C52.85183617 -0.06058443 62.69117143 -0.06102551 72.5305481 -0.05497742 C82.67457712 -0.04893783 92.81846744 -0.06124879 102.9624728 -0.08254749 C111.67772997 -0.1001722 120.39294302 -0.10616344 129.10821736 -0.10290974 C134.31078877 -0.10109803 139.51326125 -0.10372188 144.7158165 -0.11762428 C149.60945952 -0.130212 154.50288658 -0.12824952 159.39652634 -0.11521339 C161.18956068 -0.11285008 162.98261027 -0.11557352 164.77562714 -0.12383652 C167.22941059 -0.13432665 169.68247243 -0.12618553 172.13623047 -0.11352539 C173.19238471 -0.12458682 173.19238471 -0.12458682 174.26987541 -0.13587171 C180.28523271 -0.07088969 185.81341964 1.23443072 190.47244263 5.19819641 C191.02029419 5.87882141 191.56814575 6.55944641 192.13259888 7.26069641 C192.69849731 7.94132141 193.26439575 8.62194641 193.84744263 9.32319641 C196.0291459 12.4597901 196.32495543 15.10936171 196.35623169 18.82051086 C196.36583923 19.74189346 196.37544678 20.66327606 196.38534546 21.61257935 C196.39172028 23.10322151 196.39172028 23.10322151 196.39822388 24.62397766 C196.40392395 25.64871689 196.40962402 26.67345612 196.41549683 27.72924805 C196.42494602 29.89881864 196.43148049 32.06840358 196.43533325 34.23799133 C196.44503052 37.54985237 196.47605169 40.86109063 196.50759888 44.17280579 C196.51412993 46.28152606 196.51938 48.39025077 196.52322388 50.49897766 C196.53557068 51.48666641 196.54791748 52.47435516 196.56063843 53.49197388 C196.54043219 59.75926509 195.919832 64.36604675 191.44119263 69.12397766 C190.54593872 69.84134094 190.54593872 69.84134094 189.63259888 70.57319641 C189.03318481 71.06432922 188.43377075 71.55546204 187.81619263 72.06147766 C184.2105633 74.72877454 180.87253695 74.40892517 176.55404663 74.40786743 C175.35726905 74.41338246 175.35726905 74.41338246 174.13631415 74.41900891 C171.44789484 74.43007109 168.75951414 74.43389387 166.07107544 74.43769836 C164.14950436 74.44396111 162.22793449 74.45060773 160.30636597 74.45761108 C155.07484764 74.47503849 149.84333846 74.4855776 144.61179829 74.49381661 C141.34496463 74.4989631 138.07813383 74.50503899 134.81130219 74.51132774 C124.59496807 74.53038471 114.3786412 74.54461475 104.16229272 74.55293971 C92.36034233 74.56271486 80.55857936 74.58903957 68.75669503 74.62944061 C59.64071118 74.65957856 50.52478111 74.67440639 41.40874839 74.67772073 C35.96133097 74.68007387 30.51411365 74.68906871 25.06674957 74.7141819 C19.94168231 74.73742697 14.8169474 74.74171017 9.69184113 74.73142052 C7.81088151 74.73092418 5.92990574 74.73727345 4.04899597 74.75097656 C1.48029286 74.76864314 -1.08721075 74.76161554 -3.65591431 74.7484436 C-4.39969888 74.75941285 -5.14348346 74.7703821 -5.90980697 74.78168374 C-11.7927146 74.70888832 -15.29471511 72.69933318 -19.44943237 68.66304016 C-22.69126269 64.59719946 -23.92266703 61.8466729 -23.96603394 56.70088196 C-23.97564148 55.77949936 -23.98524902 54.85811676 -23.99514771 53.90881348 C-23.99939758 52.91505203 -24.00364746 51.92129059 -24.00802612 50.89741516 C-24.0137262 49.87267593 -24.01942627 48.84793671 -24.02529907 47.79214478 C-24.03474827 45.62257418 -24.04128273 43.45298924 -24.0451355 41.28340149 C-24.05483277 37.97154045 -24.08585394 34.66030219 -24.11740112 31.34858704 C-24.12393218 29.23986676 -24.12918225 27.13114205 -24.13302612 25.02241516 C-24.14537292 24.03472641 -24.15771973 23.04703766 -24.17044067 22.02941895 C-24.15030914 15.78529974 -23.47850728 11.29035181 -19.19161987 6.43257141 C-18.63087769 5.96335266 -18.0701355 5.49413391 -17.49240112 5.01069641 C-16.93939331 4.53116516 -16.3863855 4.05163391 -15.81661987 3.55757141 C-10.8507463 0.35627039 -5.7603502 -0.03072442 0 0 Z " fill="#000000" transform="translate(169.80490112304688,53.73930358886719)"/>
</svg>
