<?xml version="1.0" encoding="UTF-8"?>
<svg version="1.1" xmlns="http://www.w3.org/2000/svg" width="512" height="512">
<path d="M0 0 C0.79088516 -0.00511093 1.58177032 -0.01022186 2.3966217 -0.01548767 C5.00285475 -0.02935212 7.60882242 -0.02842933 10.21508789 -0.02612305 C12.03202919 -0.03001161 13.84896959 -0.03434661 15.66590881 -0.03910828 C19.47131296 -0.04656364 23.27662431 -0.04628409 27.08203125 -0.04101562 C31.95220174 -0.03522083 36.82199195 -0.05215552 41.69209957 -0.0753603 C45.44367178 -0.09011045 49.19515266 -0.09096761 52.94674873 -0.08785057 C54.7420483 -0.0883631 56.53735306 -0.09358804 58.33262444 -0.10366249 C60.84569714 -0.116035 63.35803235 -0.1092307 65.87109375 -0.09765625 C66.97709427 -0.10912186 66.97709427 -0.10912186 68.10543823 -0.12081909 C72.8086186 -0.07307611 75.99805063 0.81200391 80.00024414 3.2746582 C83.46919402 6.83588784 85.07411904 10.45194657 86.75805664 15.0949707 C87.00814484 15.78277618 87.25823303 16.47058167 87.51589966 17.17922974 C91.19429101 27.42498693 94.51594828 37.79623245 97.87524414 48.1496582 C98.6294864 50.46570715 99.38388414 52.78170546 100.13842773 55.09765625 C105.6694012 72.09360711 111.1249259 89.11339576 116.55639648 106.14135742 C122.48069306 124.70433495 128.48740498 143.24022796 134.50024414 161.7746582 C141.34945428 182.88830211 148.17372689 204.00911955 154.91940308 225.15612793 C162.44755373 248.74892309 170.09423421 272.30331408 177.74114037 295.85782623 C178.89965405 299.42717737 180.05664538 302.99700805 181.21011353 306.56799316 C181.64942932 307.92789878 182.08875011 309.28780278 182.52807617 310.64770508 C182.73925898 311.30158958 182.95044178 311.95547409 183.16802406 312.62917328 C184.49489584 316.73131527 185.84316619 320.82587767 187.20288086 324.91723633 C187.84237186 326.86450021 188.48185795 328.8117657 189.12133789 330.7590332 C189.40493668 331.59525208 189.68853546 332.43147095 189.98072815 333.29302979 C194.4689084 347.06848033 194.4689084 347.06848033 191.96563721 352.53326416 C189.1010333 355.07138454 186.33248839 354.8344217 182.68652344 354.79223633 C181.57378555 354.80275024 181.57378555 354.80275024 180.43856812 354.81347656 C177.98348666 354.83109673 175.52955633 354.81941688 173.07446289 354.8059082 C171.36676309 354.80860284 169.65906479 354.81248503 167.95137024 354.81750488 C164.36928728 354.82340606 160.78760303 354.8148205 157.20556641 354.79614258 C152.62213812 354.7734041 148.03964936 354.78643927 143.45625591 354.81043243 C139.92766808 354.82491808 136.39930121 354.82027092 132.87070656 354.80992126 C131.18147482 354.80725892 129.49222281 354.81050642 127.80301476 354.81983948 C125.43552311 354.83004524 123.06952911 354.81444758 120.70214844 354.79223633 C120.00842636 354.80033325 119.31470428 354.80843018 118.59996033 354.81677246 C113.63866165 354.73091828 110.81213154 353.39432774 107.00024414 350.2746582 C102.18024941 342.84950625 100.46145316 333.86988495 98.18774414 325.3996582 C97.75040366 323.79271093 97.31240942 322.18594144 96.8737793 320.5793457 C95.99408069 317.35175681 95.11939756 314.12287193 94.2487793 310.89282227 C93.1122438 306.67984234 91.95537806 302.4728276 90.79321289 298.2668457 C90.15342449 295.93624427 89.51407018 293.60552361 88.87524414 291.2746582 C88.58029053 290.20876465 88.28533691 289.14287109 87.98144531 288.04467773 C87.7169458 287.06869629 87.45244629 286.09271484 87.17993164 285.0871582 C86.83551025 283.82838867 86.83551025 283.82838867 86.48413086 282.54418945 C86.00024414 280.2746582 86.00024414 280.2746582 86.00024414 276.2746582 C51.35024414 276.6046582 16.70024414 276.9346582 -18.99975586 277.2746582 C-24.71271074 298.30202911 -24.71271074 298.30202911 -30.39697266 319.3371582 C-31.12160614 321.98327487 -31.84720875 324.62912641 -32.57397461 327.2746582 C-32.84477592 328.29197021 -32.84477592 328.29197021 -33.12104797 329.32983398 C-37.64998379 346.30868955 -37.64998379 346.30868955 -44.12475586 352.2121582 C-48.0264784 354.42313431 -51.3165862 354.40625614 -55.71850586 354.41992188 C-56.396875 354.42328049 -57.07524414 354.4266391 -57.77416992 354.43009949 C-60.01605053 354.43959684 -62.25785639 354.44155182 -64.49975586 354.44262695 C-66.05769888 354.4458398 -67.6156416 354.44920389 -69.17358398 354.45271301 C-72.43856506 354.45870082 -75.70351968 354.46055321 -78.96850586 354.45996094 C-83.15513975 354.4598592 -87.34160448 354.47352468 -91.52819824 354.49073315 C-94.74520652 354.50184166 -97.96217372 354.50388052 -101.17919922 354.50335121 C-102.72298772 354.50453255 -104.26677723 354.50896295 -105.81054688 354.51668358 C-107.96748791 354.52646273 -110.12405908 354.52361412 -112.28100586 354.51757812 C-113.50883789 354.51900314 -114.73666992 354.52042816 -116.00170898 354.52189636 C-118.99975586 354.2746582 -118.99975586 354.2746582 -121.99975586 352.2746582 C-123.95265272 343.34429392 -120.24994737 334.24816814 -117.52319336 325.8527832 C-117.04417348 324.33781493 -116.56661223 322.8223848 -116.09039307 321.30653381 C-115.06960768 318.06735372 -114.03924734 314.83144586 -113.0010376 311.59780884 C-111.34872714 306.45098044 -109.71809098 301.2974465 -108.09106445 296.14257812 C-106.40533602 290.80504677 -104.7182755 285.46795855 -103.02371216 280.13322449 C-97.93521467 264.11274019 -92.94757348 248.06204718 -87.98822021 232.00119019 C-85.94591918 225.38778483 -83.89738308 218.77630996 -81.84948349 212.16463661 C-81.18378901 210.01525187 -80.51827127 207.86581248 -79.85281372 205.71635437 C-75.49155173 191.62962813 -71.12155657 177.54561735 -66.74975586 163.4621582 C-66.38505188 162.28722809 -66.0203479 161.11229797 -65.64459229 159.90176392 C-63.8249248 154.03954142 -62.00514999 148.17735224 -60.18530273 142.31518555 C-57.58487842 133.9384208 -54.98493356 125.56150725 -52.38560486 117.18440247 C-50.51730963 111.16343765 -48.64823175 105.14271831 -46.77734375 99.12255859 C-43.26772006 87.82628089 -39.76631753 76.52761702 -36.29171753 65.22052002 C-34.85496423 60.54524391 -33.41435213 55.8711593 -31.97289848 51.19733047 C-30.99169643 48.01477635 -30.01339834 44.83139586 -29.0390625 41.64672852 C-27.9623156 38.12779993 -26.87825787 34.6111971 -25.79272461 31.0949707 C-25.48199509 30.07251251 -25.17126556 29.05005432 -24.85112 27.99661255 C-17.71277098 4.98794117 -17.71277098 4.98794117 -10.7497406 0.97932434 C-7.15193624 0.05740981 -3.68782482 -0.01235705 0 0 Z M33.00024414 86.2746582 C30.72782786 92.08157919 28.89998591 97.88807634 27.27636719 103.90576172 C27.02222046 104.83558868 26.76807373 105.76541565 26.50622559 106.72341919 C25.67112046 109.78247692 24.84146768 112.84298381 24.01196289 115.90356445 C23.42557527 118.0567166 22.83888475 120.20978627 22.25190735 122.36277771 C21.02157484 126.8785941 19.79373098 131.39507683 18.56787109 135.91210938 C17.01489438 141.63438793 15.45763705 147.35548923 13.8986845 153.07614231 C12.39318902 158.60151773 10.89004687 164.12753264 9.38696289 169.65356445 C9.10852728 170.67637575 8.83009167 171.69918705 8.54321861 172.75299263 C7.73163816 175.73586237 6.92174775 178.71918634 6.11230469 181.70263672 C5.88611954 182.53310013 5.65993439 183.36356354 5.42689514 184.2191925 C2.53779789 194.88393612 -0.21038232 205.58205963 -2.99975586 216.2746582 C20.76024414 216.2746582 44.52024414 216.2746582 69.00024414 216.2746582 C67.6680053 209.61346401 66.25190723 203.12189754 64.48168945 196.58422852 C64.23744232 195.67201035 63.99319519 194.75979218 63.74154663 193.81993103 C62.94018854 190.83005794 62.1343291 187.84141877 61.32836914 184.8527832 C60.76240947 182.74508674 60.19672022 180.63731764 59.63128662 178.52947998 C58.14371209 172.98716826 56.65225491 167.44590848 55.16003418 161.90484619 C53.95797095 157.43876116 52.75857056 152.97196327 51.55934525 148.50511551 C47.05401318 131.71625133 47.05401318 131.71625133 42.52429199 114.93395996 C41.44830646 110.95570093 40.39432782 106.97221291 39.35021973 102.98547363 C38.8126835 100.95653747 38.2751272 98.92760663 37.73754883 96.89868164 C37.49203907 95.94642826 37.24652931 94.99417488 36.99357986 94.01306534 C36.64529696 92.70755533 36.64529696 92.70755533 36.28997803 91.37567139 C35.98785967 90.22073999 35.98785967 90.22073999 35.67963791 89.04247665 C35.14887453 87.0679465 35.14887453 87.0679465 33.00024414 86.2746582 Z " fill="#000000" transform="translate(121.999755859375,78.725341796875)"/>
<path d="M0 0 C1.36749456 -0.00271419 2.73498766 -0.00627752 4.10247803 -0.01062012 C7.79667534 -0.01969547 11.49076027 -0.01622001 15.18495941 -0.00986195 C19.06227406 -0.00477672 22.93957948 -0.00950039 26.81689453 -0.01263428 C33.32651486 -0.01626659 39.83608971 -0.01149414 46.34570312 -0.00195312 C53.8574723 0.00893002 61.36913288 0.00540392 68.88089943 -0.00560594 C75.3456852 -0.01469978 81.8104384 -0.01595385 88.2752285 -0.0107286 C92.1296504 -0.00762042 95.98402137 -0.00716775 99.83843994 -0.01380157 C103.46316834 -0.019605 107.08775755 -0.01552368 110.71247101 -0.00401306 C112.66701571 -0.00013369 114.62157226 -0.00602651 116.57611084 -0.01226807 C125.43995737 0.03018839 133.29518355 0.28687462 140.3671875 6.25878906 C146.4595034 12.60186755 146.13702164 20.26891054 146.01904297 28.52197266 C145.99223322 30.75498083 146.01886228 32.98296544 146.05078125 35.21582031 C146.0701291 42.84500281 145.95127251 49.46055909 140.3671875 55.25878906 C138.33984375 57.09863281 138.33984375 57.09863281 136.4296875 58.19628906 C135.80191406 58.5765625 135.17414063 58.95683594 134.52734375 59.34863281 C130.00718641 61.25314757 125.2466318 61.38500552 120.39801025 61.39923096 C119.2262323 61.4049411 118.05445435 61.41065125 116.84716797 61.41653442 C114.93943604 61.41821121 114.93943604 61.41821121 112.99316406 61.41992188 C111.62921008 61.42455539 110.26525737 61.42958076 108.90130615 61.43496704 C105.20689342 61.44804156 101.51249883 61.45452627 97.8180666 61.4589777 C95.50598472 61.46191639 93.19390772 61.46602267 90.88182831 61.47048187 C83.63631726 61.48414366 76.39081745 61.49381681 69.14529443 61.49768376 C60.8027485 61.50216166 52.46036664 61.51970257 44.11787057 61.54868436 C37.6547984 61.57035192 31.19177223 61.58039074 24.72866416 61.58172488 C20.87522034 61.58276926 17.02193103 61.58859849 13.1685257 61.60654449 C9.54050428 61.62311337 5.91275206 61.62513839 2.28470612 61.61640549 C0.33289113 61.61527721 -1.61891528 61.62892616 -3.57067871 61.64315796 C-11.45191533 61.60605763 -19.58630866 61.35851476 -26.0703125 56.39160156 C-26.5859375 55.72902344 -27.1015625 55.06644531 -27.6328125 54.38378906 C-28.1690625 53.72636719 -28.7053125 53.06894531 -29.2578125 52.39160156 C-33.61805321 45.62827364 -33.00011053 38.74453553 -33.0078125 30.94628906 C-33.03230469 29.65271484 -33.05679687 28.35914063 -33.08203125 27.02636719 C-33.10815384 18.51475543 -32.45911152 12.97789119 -26.9921875 6.23535156 C-26.46109375 5.78933594 -25.93 5.34332031 -25.3828125 4.88378906 C-24.86203125 4.42230469 -24.34125 3.96082031 -23.8046875 3.48535156 C-16.50763589 -0.63564521 -8.10775341 -0.02589102 0 0 Z " fill="#000000" transform="translate(366.6328125,234.7412109375)"/>
</svg>
