<?xml version="1.0" encoding="UTF-8"?>
<svg version="1.1" xmlns="http://www.w3.org/2000/svg" width="512" height="512">
<path d="M0 0 C0.79088516 -0.00511093 1.58177032 -0.01022186 2.3966217 -0.01548767 C5.00285475 -0.02935212 7.60882242 -0.02842933 10.21508789 -0.02612305 C12.03202919 -0.03001161 13.84896959 -0.03434661 15.66590881 -0.03910828 C19.47131296 -0.04656364 23.27662431 -0.04628409 27.08203125 -0.04101562 C31.95220174 -0.03522083 36.82199195 -0.05215552 41.69209957 -0.0753603 C45.44367178 -0.09011045 49.19515266 -0.09096761 52.94674873 -0.08785057 C54.7420483 -0.0883631 56.53735306 -0.09358804 58.33262444 -0.10366249 C60.84569714 -0.116035 63.35803235 -0.1092307 65.87109375 -0.09765625 C66.97709427 -0.10912186 66.97709427 -0.10912186 68.10543823 -0.12081909 C72.8086186 -0.07307611 75.99805063 0.81200391 80.00024414 3.2746582 C83.46919402 6.83588784 85.07411904 10.45194657 86.75805664 15.0949707 C87.00814484 15.78277618 87.25823303 16.47058167 87.51589966 17.17922974 C91.19429101 27.42498693 94.51594828 37.79623245 97.87524414 48.1496582 C98.6294864 50.46570715 99.38388414 52.78170546 100.13842773 55.09765625 C105.6694012 72.09360711 111.1249259 89.11339576 116.55639648 106.14135742 C122.48069306 124.70433495 128.48740498 143.24022796 134.50024414 161.7746582 C141.34945428 182.88830211 148.17372689 204.00911955 154.91940308 225.15612793 C162.44755373 248.74892309 170.09423421 272.30331408 177.74114037 295.85782623 C178.89965405 299.42717737 180.05664538 302.99700805 181.21011353 306.56799316 C181.64942932 307.92789878 182.08875011 309.28780278 182.52807617 310.64770508 C182.73925898 311.30158958 182.95044178 311.95547409 183.16802406 312.62917328 C184.49489584 316.73131527 185.84316619 320.82587767 187.20288086 324.91723633 C187.84237186 326.86450021 188.48185795 328.8117657 189.12133789 330.7590332 C189.40493668 331.59525208 189.68853546 332.43147095 189.98072815 333.29302979 C194.4689084 347.06848033 194.4689084 347.06848033 191.96563721 352.53326416 C189.1010333 355.07138454 186.33248839 354.8344217 182.68652344 354.79223633 C181.57378555 354.80275024 181.57378555 354.80275024 180.43856812 354.81347656 C177.98348666 354.83109673 175.52955633 354.81941688 173.07446289 354.8059082 C171.36676309 354.80860284 169.65906479 354.81248503 167.95137024 354.81750488 C164.36928728 354.82340606 160.78760303 354.8148205 157.20556641 354.79614258 C152.62213812 354.7734041 148.03964936 354.78643927 143.45625591 354.81043243 C139.92766808 354.82491808 136.39930121 354.82027092 132.87070656 354.80992126 C131.18147482 354.80725892 129.49222281 354.81050642 127.80301476 354.81983948 C125.43552311 354.83004524 123.06952911 354.81444758 120.70214844 354.79223633 C120.00842636 354.80033325 119.31470428 354.80843018 118.59996033 354.81677246 C113.63866165 354.73091828 110.81213154 353.39432774 107.00024414 350.2746582 C102.18024941 342.84950625 100.46145316 333.86988495 98.18774414 325.3996582 C97.75040366 323.79271093 97.31240942 322.18594144 96.8737793 320.5793457 C95.99408069 317.35175681 95.11939756 314.12287193 94.2487793 310.89282227 C93.1122438 306.67984234 91.95537806 302.4728276 90.79321289 298.2668457 C90.15342449 295.93624427 89.51407018 293.60552361 88.87524414 291.2746582 C88.58029053 290.20876465 88.28533691 289.14287109 87.98144531 288.04467773 C87.7169458 287.06869629 87.45244629 286.09271484 87.17993164 285.0871582 C86.83551025 283.82838867 86.83551025 283.82838867 86.48413086 282.54418945 C86.00024414 280.2746582 86.00024414 280.2746582 86.00024414 276.2746582 C51.35024414 276.6046582 16.70024414 276.9346582 -18.99975586 277.2746582 C-24.71271074 298.30202911 -24.71271074 298.30202911 -30.39697266 319.3371582 C-31.12160614 321.98327487 -31.84720875 324.62912641 -32.57397461 327.2746582 C-32.84477592 328.29197021 -32.84477592 328.29197021 -33.12104797 329.32983398 C-37.64998379 346.30868955 -37.64998379 346.30868955 -44.12475586 352.2121582 C-48.0264784 354.42313431 -51.3165862 354.40625614 -55.71850586 354.41992188 C-56.396875 354.42328049 -57.07524414 354.4266391 -57.77416992 354.43009949 C-60.01605053 354.43959684 -62.25785639 354.44155182 -64.49975586 354.44262695 C-66.05769888 354.4458398 -67.6156416 354.44920389 -69.17358398 354.45271301 C-72.43856506 354.45870082 -75.70351968 354.46055321 -78.96850586 354.45996094 C-83.15513975 354.4598592 -87.34160448 354.47352468 -91.52819824 354.49073315 C-94.74520652 354.50184166 -97.96217372 354.50388052 -101.17919922 354.50335121 C-102.72298772 354.50453255 -104.26677723 354.50896295 -105.81054688 354.51668358 C-107.96748791 354.52646273 -110.12405908 354.52361412 -112.28100586 354.51757812 C-113.50883789 354.51900314 -114.73666992 354.52042816 -116.00170898 354.52189636 C-118.99975586 354.2746582 -118.99975586 354.2746582 -121.99975586 352.2746582 C-123.95265272 343.34429392 -120.24994737 334.24816814 -117.52319336 325.8527832 C-117.04417348 324.33781493 -116.56661223 322.8223848 -116.09039307 321.30653381 C-115.06960768 318.06735372 -114.03924734 314.83144586 -113.0010376 311.59780884 C-111.34872714 306.45098044 -109.71809098 301.2974465 -108.09106445 296.14257812 C-106.40533602 290.80504677 -104.7182755 285.46795855 -103.02371216 280.13322449 C-97.93521467 264.11274019 -92.94757348 248.06204718 -87.98822021 232.00119019 C-85.94591918 225.38778483 -83.89738308 218.77630996 -81.84948349 212.16463661 C-81.18378901 210.01525187 -80.51827127 207.86581248 -79.85281372 205.71635437 C-75.49155173 191.62962813 -71.12155657 177.54561735 -66.74975586 163.4621582 C-66.38505188 162.28722809 -66.0203479 161.11229797 -65.64459229 159.90176392 C-63.8249248 154.03954142 -62.00514999 148.17735224 -60.18530273 142.31518555 C-57.58487842 133.9384208 -54.98493356 125.56150725 -52.38560486 117.18440247 C-50.51730963 111.16343765 -48.64823175 105.14271831 -46.77734375 99.12255859 C-43.26772006 87.82628089 -39.76631753 76.52761702 -36.29171753 65.22052002 C-34.85496423 60.54524391 -33.41435213 55.8711593 -31.97289848 51.19733047 C-30.99169643 48.01477635 -30.01339834 44.83139586 -29.0390625 41.64672852 C-27.9623156 38.12779993 -26.87825787 34.6111971 -25.79272461 31.0949707 C-25.48199509 30.07251251 -25.17126556 29.05005432 -24.85112 27.99661255 C-17.71277098 4.98794117 -17.71277098 4.98794117 -10.7497406 0.97932434 C-7.15193624 0.05740981 -3.68782482 -0.01235705 0 0 Z M33.00024414 86.2746582 C30.72782786 92.08157919 28.89998591 97.88807634 27.27636719 103.90576172 C27.02222046 104.83558868 26.76807373 105.76541565 26.50622559 106.72341919 C25.67112046 109.78247692 24.84146768 112.84298381 24.01196289 115.90356445 C23.42557527 118.0567166 22.83888475 120.20978627 22.25190735 122.36277771 C21.02157484 126.8785941 19.79373098 131.39507683 18.56787109 135.91210938 C17.01489438 141.63438793 15.45763705 147.35548923 13.8986845 153.07614231 C12.39318902 158.60151773 10.89004687 164.12753264 9.38696289 169.65356445 C9.10852728 170.67637575 8.83009167 171.69918705 8.54321861 172.75299263 C7.73163816 175.73586237 6.92174775 178.71918634 6.11230469 181.70263672 C5.88611954 182.53310013 5.65993439 183.36356354 5.42689514 184.2191925 C2.53779789 194.88393612 -0.21038232 205.58205963 -2.99975586 216.2746582 C20.76024414 216.2746582 44.52024414 216.2746582 69.00024414 216.2746582 C67.6680053 209.61346401 66.25190723 203.12189754 64.48168945 196.58422852 C64.23744232 195.67201035 63.99319519 194.75979218 63.74154663 193.81993103 C62.94018854 190.83005794 62.1343291 187.84141877 61.32836914 184.8527832 C60.76240947 182.74508674 60.19672022 180.63731764 59.63128662 178.52947998 C58.14371209 172.98716826 56.65225491 167.44590848 55.16003418 161.90484619 C53.95797095 157.43876116 52.75857056 152.97196327 51.55934525 148.50511551 C47.05401318 131.71625133 47.05401318 131.71625133 42.52429199 114.93395996 C41.44830646 110.95570093 40.39432782 106.97221291 39.35021973 102.98547363 C38.8126835 100.95653747 38.2751272 98.92760663 37.73754883 96.89868164 C37.49203907 95.94642826 37.24652931 94.99417488 36.99357986 94.01306534 C36.64529696 92.70755533 36.64529696 92.70755533 36.28997803 91.37567139 C35.98785967 90.22073999 35.98785967 90.22073999 35.67963791 89.04247665 C35.14887453 87.0679465 35.14887453 87.0679465 33.00024414 86.2746582 Z " fill="#000000" transform="translate(121.999755859375,78.725341796875)"/>
<path d="M0 0 C1.14597656 -0.01611328 2.29195313 -0.03222656 3.47265625 -0.04882812 C11.47216419 -0.05343083 17.88907513 0.65989603 24.4375 5.625 C28.56096678 9.74846678 30.27581103 13.3128232 30.46557617 19.12451172 C30.46510495 20.99713749 30.44837896 22.8698086 30.41796875 24.7421875 C30.41372391 25.73251984 30.40947906 26.72285217 30.40510559 27.74319458 C30.38837622 30.89157845 30.35073419 34.03931113 30.3125 37.1875 C30.29744576 39.32811572 30.28375865 41.46874153 30.27148438 43.609375 C30.2384916 48.84397041 30.18834956 54.07818867 30.125 59.3125 C31.29482422 59.30202637 32.46464844 59.29155273 33.66992188 59.28076172 C38.03837994 59.24437493 42.40682478 59.2215319 46.77539062 59.20263672 C48.66083026 59.19262153 50.54625453 59.17900548 52.43164062 59.16162109 C55.15238249 59.13717468 57.87291777 59.12597184 60.59375 59.1171875 C61.42741089 59.10686493 62.26107178 59.09654236 63.11999512 59.08590698 C70.94694213 59.08442946 77.94520033 60.0940025 84.125 65.3125 C90.2173159 71.65557849 89.89483414 79.32262147 89.77685547 87.57568359 C89.75004572 89.80869176 89.77667478 92.03667638 89.80859375 94.26953125 C89.8279416 101.89871375 89.70908501 108.51427002 84.125 114.3125 C82.09765625 116.15234375 82.09765625 116.15234375 80.1875 117.25 C79.55972656 117.63027344 78.93195313 118.01054687 78.28515625 118.40234375 C72.71484202 120.74932967 66.72068754 120.44643043 60.7890625 120.41015625 C59.90971039 120.4087413 59.03035828 120.40732635 58.12435913 120.40586853 C55.33287058 120.40029877 52.54146406 120.3877519 49.75 120.375 C47.85026158 120.36998109 45.9505219 120.36541887 44.05078125 120.36132812 C39.40882286 120.35033925 34.76692531 120.33309557 30.125 120.3125 C30.13610306 120.85849854 30.14720612 121.40449707 30.15864563 121.96704102 C30.26972732 127.67756705 30.34486794 133.38778355 30.3996582 139.09912109 C30.42471889 141.22717771 30.45877691 143.35514897 30.50219727 145.48291016 C30.56322089 148.55132163 30.59129474 151.61858995 30.61328125 154.6875 C30.63908768 155.63052979 30.6648941 156.57355957 30.69148254 157.54516602 C30.69422106 164.0737842 29.25792915 168.2324021 25.125 173.3125 C18.98441899 179.45308101 11.90941248 179.58227094 3.65820312 179.63476562 C2.51287109 179.63154297 1.36753906 179.62832031 0.1875 179.625 C-1.52469727 179.64916992 -1.52469727 179.64916992 -3.27148438 179.67382812 C-10.77572157 179.67816333 -17.08043561 179.41293676 -23.1171875 174.48046875 C-23.65601563 173.82691406 -24.19484375 173.17335938 -24.75 172.5 C-25.58144531 171.53126953 -25.58144531 171.53126953 -26.4296875 170.54296875 C-30.15663668 164.7913796 -30.14718465 159.14999269 -30.0703125 152.5390625 C-30.0674826 151.6153183 -30.06465271 150.6915741 -30.06173706 149.73983765 C-30.05059179 146.80559024 -30.02549765 143.8716543 -30 140.9375 C-29.98996289 138.94141068 -29.98083832 136.94531654 -29.97265625 134.94921875 C-29.95067097 130.07019351 -29.91618017 125.19139946 -29.875 120.3125 C-31.03435059 120.32821045 -32.19370117 120.3439209 -33.38818359 120.36010742 C-37.73055954 120.41481743 -42.07290564 120.44899808 -46.41552734 120.47729492 C-48.28732443 120.49228865 -50.15908694 120.5126905 -52.03076172 120.53881836 C-75.25098584 120.85461341 -75.25098584 120.85461341 -82.3125 115.4453125 C-82.828125 114.78273438 -83.34375 114.12015625 -83.875 113.4375 C-84.41125 112.78007812 -84.9475 112.12265625 -85.5 111.4453125 C-89.86024071 104.68198458 -89.24229803 97.79824647 -89.25 90 C-89.27449219 88.70642578 -89.29898437 87.41285156 -89.32421875 86.08007812 C-89.35034134 77.56846636 -88.70129902 72.03160213 -83.234375 65.2890625 C-82.70328125 64.84304687 -82.1721875 64.39703125 -81.625 63.9375 C-81.10421875 63.47601563 -80.5834375 63.01453125 -80.046875 62.5390625 C-73.92529748 59.0819126 -67.17709832 59.03257549 -60.34375 59.1171875 C-59.02896667 59.12143234 -59.02896667 59.12143234 -57.68762207 59.12576294 C-54.91660301 59.13686508 -52.14591965 59.16195046 -49.375 59.1875 C-47.4843797 59.19754271 -45.59375429 59.20666629 -43.703125 59.21484375 C-39.09362271 59.23677165 -34.48436806 59.27123155 -29.875 59.3125 C-29.89071045 58.08208984 -29.9064209 56.85167969 -29.92260742 55.58398438 C-29.97716262 50.99192933 -30.01144281 46.39990259 -30.03979492 41.80761719 C-30.05482344 39.8251462 -30.07525198 37.84270814 -30.10131836 35.86035156 C-30.13796383 33.00056807 -30.15478604 30.14122656 -30.16796875 27.28125 C-30.18345261 26.40384155 -30.19893646 25.52643311 -30.21488953 24.62243652 C-30.21665852 18.06252676 -29.33111269 12.31848867 -25.04296875 7.0703125 C-24.38941406 6.53148437 -23.73585938 5.99265625 -23.0625 5.4375 C-22.41667969 4.88320312 -21.77085937 4.32890625 -21.10546875 3.7578125 C-14.54308213 -0.49452209 -7.52269471 -0.02101311 0 0 Z " fill="#000000" transform="translate(422.875,175.6875)"/>
</svg>
