<?xml version="1.0" encoding="UTF-8"?>
<svg version="1.1" xmlns="http://www.w3.org/2000/svg" width="512" height="512">
<path d="M0 0 C0.76024475 0.00182281 1.5204895 0.00364563 2.30377197 0.00552368 C48.13352692 0.18953319 92.95324062 15.1305446 129.875 42.3125 C130.4740918 42.75319824 131.07318359 43.19389648 131.69042969 43.64794922 C144.07507199 52.85958195 156.21316483 63.22483926 165.875 75.3125 C166.34067383 75.89241699 166.80634766 76.47233398 167.28613281 77.06982422 C169.46060412 79.7782712 171.63338734 82.48783039 173.78979492 85.21069336 C174.28842041 85.83983643 174.7870459 86.46897949 175.30078125 87.1171875 C175.74848877 87.68421387 176.19619629 88.25124023 176.6574707 88.83544922 C177.94925433 90.45066686 177.94925433 90.45066686 179.875 92.3125 C179.7925 91.095625 179.71 89.87875 179.625 88.625 C179.68615236 75.66069977 185.92861549 65.50591719 194.4375 56.25 C205.57326607 45.62819237 220.07840737 39.2349226 234.2890625 33.8671875 C236.00657715 33.21834595 236.00657715 33.21834595 237.75878906 32.55639648 C240.03470922 31.70475671 242.31516625 30.86511517 244.60058594 30.03930664 C251.35649299 27.53464535 257.0905925 24.61070745 262.875 20.3125 C263.761875 19.673125 264.64875 19.03375 265.5625 18.375 C267.6414038 16.52084255 269.03060751 14.77316672 270.6875 12.5625 C272.38217169 10.53064558 273.35281299 9.47410526 275.89453125 8.6875 C278 8.5625 278 8.5625 281.875 9.3125 C287.24098469 14.80911727 288.86942772 22.10929868 290.875 29.3125 C291.17784912 30.39362061 291.17784912 30.39362061 291.48681641 31.49658203 C294.38990216 42.35397987 295.25140481 52.96179732 295.3125 64.1875 C295.3225708 65.3748877 295.3326416 66.56227539 295.34301758 67.78564453 C295.16618767 85.86242651 290.15988633 103.06499434 278.875 117.3125 C277.76125 118.859375 277.76125 118.859375 276.625 120.4375 C271.88395674 125.39404523 266.42278548 129.79955597 260.08349609 132.50292969 C251.49541559 136.22894681 247.9613891 140.39355566 243.625 148.5625 C242.36813371 150.7903324 241.10893605 153.01685081 239.84765625 155.2421875 C238.88496826 156.97227051 238.88496826 156.97227051 237.90283203 158.73730469 C234.8101316 164.24346496 231.46573647 169.59715293 228.13415527 174.96081543 C227.0782981 176.66204561 226.02787542 178.3666448 224.97753906 180.07128906 C220.19871342 187.82692986 220.19871342 187.82692986 217.875 191.3125 C217.49808728 193.56349386 217.49808728 193.56349386 217.41796875 196.07421875 C217.36044434 197.02031006 217.30291992 197.96640137 217.24365234 198.94116211 C217.18387207 199.95057861 217.1240918 200.95999512 217.0625 202 C215.55735845 222.05764722 208.75518657 241.35167607 194.875 256.3125 C194.42608398 256.79702637 193.97716797 257.28155273 193.51464844 257.78076172 C182.23898183 269.82196689 169.11791507 279.03999118 153.625 284.9375 C147.74905209 287.80537045 144.00357149 294.40571595 140.19921875 299.54345703 C131.24854851 311.50078678 121.1595243 322.79855117 111.10546875 333.8359375 C109.84415556 335.23641484 108.58956802 336.6432299 107.3581543 338.07006836 C72.42155344 378.54424268 72.42155344 378.54424268 52.859375 380.515625 C46.81706605 380.64238673 41.81710749 380.05801506 37.1796875 375.73046875 C31.37871832 369.29895945 30.16535063 363.35331996 30.4453125 354.78125 C31.66719183 337.81154703 39.78737874 321.48709227 46.875 306.3125 C47.3793457 305.23226563 47.88369141 304.15203125 48.40332031 303.0390625 C53.60336175 291.96113438 58.91780964 281.00610205 64.875 270.3125 C54.55125953 269.15612961 44.72220351 268.13592606 35.8125 274.5 C35.173125 275.098125 34.53375 275.69625 33.875 276.3125 C33.215 276.3125 32.555 276.3125 31.875 276.3125 C25.81784252 288.29100425 24.29682294 298.51994749 25.6015625 311.90234375 C27.68087157 337.83429829 21.52732067 362.51908744 4.58056641 382.86669922 C1.4743751 386.48083506 -1.78045299 389.91847745 -5.125 393.3125 C-5.76953125 393.96992188 -6.4140625 394.62734375 -7.078125 395.3046875 C-24.35627496 411.60624637 -47.05677175 417.04286214 -70.16796875 416.6171875 C-101.95707558 415.38335208 -130.62957114 397.6815009 -153.125 376.3125 C-153.65206543 375.8179834 -154.17913086 375.3234668 -154.72216797 374.81396484 C-167.79308119 362.48143702 -178.27357507 348.78031136 -187.09570312 333.13623047 C-187.76895271 331.94335229 -188.44966958 330.75465009 -189.13867188 329.57080078 C-206.04899817 300.48866554 -217.1385024 263.97200259 -217.328125 230.203125 C-217.33518463 229.36242462 -217.34224426 228.52172424 -217.34951782 227.6555481 C-217.57791295 192.47823533 -217.57791295 192.47823533 -214.125 177.3125 C-213.81900879 175.94351563 -213.81900879 175.94351563 -213.50683594 174.546875 C-206.99215257 146.17433841 -195.97708859 119.14920854 -179.125 95.3125 C-178.37605469 94.2503125 -177.62710938 93.188125 -176.85546875 92.09375 C-163.82231751 74.2465519 -148.65105489 57.72787618 -130.84130859 44.58007812 C-129.13932411 43.32307906 -127.45455002 42.0452368 -125.76953125 40.765625 C-116.73469987 34.0077906 -107.12168333 28.5168233 -97.125 23.3125 C-96.45694336 22.95945801 -95.78888672 22.60641602 -95.10058594 22.24267578 C-75.91047992 12.21562939 -54.53532497 5.4429255 -33.125 2.3125 C-31.95775391 2.13807373 -30.79050781 1.96364746 -29.58789062 1.78393555 C-19.70455988 0.38288745 -9.97452369 -0.05010737 0 0 Z M-51.10546875 67.61328125 C-56.82577993 75.38582778 -59.235683 82.66783492 -58.125 92.3125 C-56.34963905 99.94548899 -53.19746289 106.25020107 -47.125 111.3125 C-39.33690791 116.1245569 -32.2683196 118.23208674 -23.125 117.3125 C-14.27288742 115.09947185 -7.51740353 110.01165043 -2.25 102.625 C1.7556295 95.55383773 2.54665248 87.94314739 0.875 80.0625 C-1.75589662 71.26220826 -7.13525508 64.84378643 -15.125 60.3125 C-27.57590714 55.20492973 -41.97189893 57.00248712 -51.10546875 67.61328125 Z M60.875 95.3125 C56.28814187 102.69927649 53.94680793 109.61401427 54.875 118.3125 C56.91297185 126.95546496 60.75315616 133.84314294 68.1875 138.87890625 C76.23176112 143.52287936 84.45642733 144.90125561 93.63671875 142.62890625 C102.25498488 139.44819854 107.71068728 134.72091182 111.875 126.54296875 C115.55577209 118.33312163 115.67706707 111.25433889 112.90625 102.80078125 C109.33174579 94.17593587 102.75277569 89.15878607 94.51953125 85.171875 C81.86010254 81.05802815 69.34381768 85.5521415 60.875 95.3125 Z M195.875 121.3125 C194.26632776 123.03446578 194.26632776 123.03446578 192.6015625 125.30859375 C191.62074707 126.59878418 191.62074707 126.59878418 190.62011719 127.91503906 C189.92047852 128.85057617 189.22083984 129.78611328 188.5 130.75 C187.41960449 132.18230957 187.41960449 132.18230957 186.31738281 133.64355469 C180.47387483 141.4271177 174.81901055 149.32952924 169.26660156 157.32226562 C167.93942602 159.2203595 166.59511724 161.10457836 165.2421875 162.984375 C128.5502142 214.09436963 93.74606399 268.66532027 68.0625 326.1875 C67.29752197 327.89945557 67.29752197 327.89945557 66.51708984 329.64599609 C64.51848364 334.20663432 62.69872619 338.37906608 61.875 343.3125 C67.55640537 339.28065549 72.56619706 334.91057815 77.4375 329.9375 C78.09443848 329.27339111 78.75137695 328.60928223 79.42822266 327.92504883 C83.172641 324.11761672 86.83368936 320.26828606 90.28125 316.1875 C92.21825871 313.90866622 94.23405625 311.70925343 96.25 309.5 C100.98106078 304.25123055 105.4355944 298.80824938 109.875 293.3125 C110.90943444 292.04628497 111.94463622 290.78069657 112.98046875 289.515625 C119.76185925 281.2241351 126.41679219 272.85928204 132.875 264.3125 C133.42913574 263.58047363 133.98327148 262.84844727 134.55419922 262.09423828 C165.33539809 221.3862889 193.467817 178.96915647 219.875 135.3125 C217.51327627 132.95077627 215.27140127 131.98523579 212.25 130.5625 C207.52466806 128.25662888 203.45341269 125.75043449 199.3984375 122.4140625 C197.91821219 121.11718479 197.91821219 121.11718479 195.875 121.3125 Z M-142.8828125 135.45703125 C-148.18275601 142.97168546 -150.00748894 150.17943986 -149.125 159.3125 C-147.5367622 167.37380785 -143.32110665 174.03196762 -136.875 179.125 C-130.6240973 183.20947505 -122.55842303 185.51275913 -115.125 184.3125 C-105.63938045 181.97243527 -98.78586609 177.51600226 -93.25 169.4375 C-89.09025597 162.12984157 -88.23088249 154.4785298 -90.125 146.3125 C-93.09063281 137.54858959 -98.5806877 131.10437276 -106.87109375 126.9296875 C-119.96317981 121.73643284 -133.73853284 124.30101007 -142.8828125 135.45703125 Z M-146.125 245.3125 C-152.89523805 253.02131079 -155.6487567 259.99218173 -155.43359375 270.21875 C-154.58920135 278.68405104 -150.59341354 285.82045077 -144.125 291.3125 C-136.2282989 296.13692833 -129.37165625 298.16193036 -120.125 297.3125 C-111.06127472 295.10637332 -104.20508486 289.86126046 -99.1875 282.0625 C-95.25221793 275.39253039 -95.09030399 267.85903285 -96.125 260.3125 C-98.87831565 251.6395557 -103.38716717 245.51284358 -111.2890625 241.10546875 C-123.35629995 235.2377227 -135.6297227 236.73344586 -146.125 245.3125 Z " fill="#000000" transform="translate(217.125,47.6875)"/>
</svg>
