<?xml version="1.0" encoding="UTF-8"?>
<svg id="stroke-icon" version="1.1" xmlns="http://www.w3.org/2000/svg" width="512" height="512">
<path d="M0 0 C1.12390137 -0.00287018 2.24780273 -0.00574036 3.40576172 -0.00869751 C5.77246609 -0.01073111 8.13918754 -0.00525074 10.50585938 0.00732422 C14.11366617 0.02338704 17.72035275 0.00745061 21.328125 -0.01171875 C23.63541912 -0.00973619 25.94271255 -0.00589227 28.25 0 C29.3210498 -0.00607269 30.39209961 -0.01214539 31.49560547 -0.0184021 C39.20069342 0.05340866 45.18547954 0.53970614 50.86987305 6.06787109 C53.52216235 9.67078016 55.37377904 13.62316228 57.20703125 17.6875 C57.57793381 18.49061615 57.94883636 19.2937323 58.33097839 20.1211853 C59.54237269 22.75114613 60.74012183 25.38706946 61.9375 28.0234375 C62.78783096 29.87787046 63.63875075 31.73203352 64.49023438 33.5859375 C70.12225526 45.87651899 75.63507466 58.21942039 81.09121704 70.58892822 C86.46022114 82.75970421 92.00534335 94.84151484 97.625 106.8984375 C103.58205925 119.67925439 109.43705128 132.49556073 115.125 145.3984375 C120.87710555 158.44600279 126.79444421 171.40890175 132.8125 184.3359375 C138.75168808 197.09382223 144.62563756 209.87259594 150.35107422 222.72802734 C154.48478258 232.00115221 158.70254353 241.23372186 162.9375 250.4609375 C168.35995893 262.27671271 173.68498265 274.13122296 178.9375 286.0234375 C184.7188192 299.10836318 190.65718091 312.11397709 196.6875 325.0859375 C197.4879862 326.81065773 198.2883612 328.53542957 199.08862305 330.26025391 C203.73646459 340.27420536 203.73646459 340.27420536 208.41064453 350.27587891 C210.20392388 354.0999045 211.98520203 357.92929883 213.75802612 361.7628479 C214.40945023 363.16527853 215.06550026 364.56557153 215.72659302 365.96347046 C223.55988413 382.5357746 223.55988413 382.5357746 221 391.2109375 C219.01144319 394.59148408 217.44744186 396.34168778 214.125 398.3984375 C210.53417974 399.31809365 207.14973133 399.53373683 203.4519043 399.55957031 C201.77942879 399.57398163 201.77942879 399.57398163 200.07316589 399.58868408 C198.87726334 399.59293396 197.68136078 399.59718384 196.44921875 399.6015625 C194.5905291 399.61011261 194.5905291 399.61011261 192.69429016 399.61883545 C190.07427827 399.628274 187.45425457 399.63481488 184.83422852 399.63867188 C182.15830889 399.64306129 179.48271084 399.656975 176.80688477 399.6796875 C172.93756368 399.71021281 169.06864697 399.72072666 165.19921875 399.7265625 C164.00938889 399.7389093 162.81955902 399.7512561 161.59367371 399.76397705 C154.09836883 399.7439723 147.54034295 399.6895728 141.85595703 394.21191406 C139.70485338 390.71553628 138.03808729 387.15440506 136.4296875 383.3828125 C136.08426407 382.59018509 135.73884064 381.79755768 135.38294983 380.98091125 C134.24827572 378.37307346 133.12421919 375.76079716 132 373.1484375 C131.21117207 371.33094957 130.42152767 369.51381579 129.63110352 367.69702148 C127.9759954 363.89101486 126.32448452 360.08347619 124.67529297 356.27490234 C120.90107683 347.56753019 117.08114525 338.8802209 113.26251221 330.19226074 C112.07400014 327.48711273 110.88710992 324.78125865 109.70068359 322.07519531 C108.97625027 320.42382229 108.25180435 318.7724548 107.52734375 317.12109375 C107.19589859 316.36468094 106.86445343 315.60826813 106.52296448 314.82893372 C104.8857643 311.08500475 104.8857643 311.08500475 103.125 307.3984375 C44.055 307.3984375 -15.015 307.3984375 -75.875 307.3984375 C-89.35757035 337.71807493 -89.35757035 337.71807493 -102.6862793 368.10449219 C-114.53126286 395.2940555 -114.53126286 395.2940555 -120.875 398.3984375 C-124.06779599 399.40345354 -127.00414766 399.53586931 -130.34277344 399.55957031 C-131.43781189 399.56917786 -132.53285034 399.5787854 -133.66107178 399.58868408 C-134.84026184 399.59293396 -136.0194519 399.59718384 -137.234375 399.6015625 C-139.06189301 399.61011261 -139.06189301 399.61011261 -140.92633057 399.61883545 C-143.5052402 399.6282817 -146.08416188 399.63481794 -148.66308594 399.63867188 C-152.59591915 399.64836582 -156.52822717 399.67938906 -160.4609375 399.7109375 C-162.9687469 399.71746898 -165.47656004 399.72271888 -167.984375 399.7265625 C-169.74101471 399.7450827 -169.74101471 399.7450827 -171.53314209 399.76397705 C-178.02750585 399.74638099 -183.01491884 399.29000366 -188.875 396.3984375 C-192.49822042 392.31070164 -193.96162898 388.85606335 -193.875 383.3984375 C-190.94715287 374.14501566 -186.65537371 365.31179577 -182.57647705 356.52185059 C-180.79274394 352.67651154 -179.02323969 348.82463747 -177.25390625 344.97265625 C-176.88883972 344.17828156 -176.52377319 343.38390686 -176.14764404 342.56546021 C-172.35433008 334.2939138 -168.67530358 325.97289796 -165 317.6484375 C-158.97925574 304.02269982 -152.79464781 290.47876202 -146.52990723 276.96362305 C-141.17310012 265.40620225 -135.89325184 253.8205458 -130.70629883 242.18579102 C-126.48612782 232.73025349 -122.18948841 223.31122982 -117.875 213.8984375 C-113.06231508 203.39595573 -108.27702287 192.882945 -103.5625 182.3359375 C-98.25751664 170.46888949 -92.91955487 158.61707162 -87.5625 146.7734375 C-86.95488327 145.43001282 -86.95488327 145.43001282 -86.33499146 144.05944824 C-80.42379881 130.99388551 -74.47568784 117.94560868 -68.50228882 104.90838623 C-63.55148188 94.10071439 -58.66486323 83.26645172 -53.81811523 72.41162109 C-48.77830851 61.14195592 -43.64455098 49.91585665 -38.48901367 38.69873047 C-35.69169383 32.60649815 -32.89964782 26.51726757 -30.2578125 20.35546875 C-29.7150769 19.09416138 -29.7150769 19.09416138 -29.16137695 17.80737305 C-28.54489271 16.36159463 -27.9380036 14.91165469 -27.34448242 13.45629883 C-24.91334942 7.75125003 -22.07999881 4.436084 -16.44262695 1.78320312 C-11.03120504 -0.15145727 -5.68973367 -0.03225994 0 0 Z M13.125 102.3984375 C12.67922607 103.41526611 12.23345215 104.43209473 11.77416992 105.47973633 C3.47339832 124.41156281 -4.83943821 143.33790527 -13.20077515 162.24307251 C-15.5600182 167.57821031 -17.91702506 172.91433661 -20.2742157 178.25038147 C-22.3190926 182.87895545 -24.36540078 187.50688892 -26.4140625 192.13378906 C-28.50666487 196.86045242 -30.59513318 201.58892366 -32.6809082 206.31860352 C-33.46705025 208.0993575 -34.25461125 209.87948586 -35.04370117 211.65893555 C-36.1370957 214.12513456 -37.22535988 216.59353883 -38.3125 219.0625 C-38.63037476 219.77624786 -38.94824951 220.48999573 -39.27575684 221.22537231 C-41.47704524 226.24472131 -43.12390552 231.14515406 -44.875 236.3984375 C-6.265 236.3984375 32.345 236.3984375 72.125 236.3984375 C70.07347834 230.24387251 67.94943917 224.43702876 65.30859375 218.5546875 C64.94028442 217.72500458 64.5719751 216.89532166 64.19250488 216.04049683 C63.39983078 214.25607134 62.60529229 212.47247307 61.80905151 210.68963623 C60.09808415 206.85854713 58.39628966 203.02340407 56.69374084 199.18856812 C55.81054621 197.19960459 54.9268646 195.21085724 54.04270935 193.22232056 C49.6848929 183.41962471 45.36981713 173.59840314 41.0625 163.7734375 C40.33085843 162.10552912 39.59916897 160.43764175 38.86743164 158.76977539 C37.3907274 155.40374364 35.91427997 152.03759942 34.43798828 148.67138672 C30.70198563 140.15341298 26.96207097 131.63715612 23.22268677 123.1206665 C21.2915587 118.72242775 19.36062739 114.32410262 17.4296875 109.92578125 C16.78369239 108.45434527 16.13769641 106.98290967 15.49169922 105.51147461 C14.81518311 103.97052124 14.81518311 103.97052124 14.125 102.3984375 C13.795 102.3984375 13.465 102.3984375 13.125 102.3984375 Z " fill="#FDFDFD" transform="translate(240.875,55.6015625)"/>
<path d="M0 0 C1.12390137 -0.00287018 2.24780273 -0.00574036 3.40576172 -0.00869751 C5.77246609 -0.01073111 8.13918754 -0.00525074 10.50585938 0.00732422 C14.11366617 0.02338704 17.72035275 0.00745061 21.328125 -0.01171875 C23.63541912 -0.00973619 25.94271255 -0.00589227 28.25 0 C29.3210498 -0.00607269 30.39209961 -0.01214539 31.49560547 -0.0184021 C39.20069342 0.05340866 45.18547954 0.53970614 50.86987305 6.06787109 C53.52216235 9.67078016 55.37377904 13.62316228 57.20703125 17.6875 C57.57793381 18.49061615 57.94883636 19.2937323 58.33097839 20.1211853 C59.54237269 22.75114613 60.74012183 25.38706946 61.9375 28.0234375 C62.78783096 29.87787046 63.63875075 31.73203352 64.49023438 33.5859375 C70.12225526 45.87651899 75.63507466 58.21942039 81.09121704 70.58892822 C86.46022114 82.75970421 92.00534335 94.84151484 97.625 106.8984375 C103.58205925 119.67925439 109.43705128 132.49556073 115.125 145.3984375 C120.87710555 158.44600279 126.79444421 171.40890175 132.8125 184.3359375 C138.75168808 197.09382223 144.62563756 209.87259594 150.35107422 222.72802734 C154.48478258 232.00115221 158.70254353 241.23372186 162.9375 250.4609375 C168.35995893 262.27671271 173.68498265 274.13122296 178.9375 286.0234375 C184.7188192 299.10836318 190.65718091 312.11397709 196.6875 325.0859375 C197.4879862 326.81065773 198.2883612 328.53542957 199.08862305 330.26025391 C203.73646459 340.27420536 203.73646459 340.27420536 208.41064453 350.27587891 C210.20392388 354.0999045 211.98520203 357.92929883 213.75802612 361.7628479 C214.40945023 363.16527853 215.06550026 364.56557153 215.72659302 365.96347046 C223.55988413 382.5357746 223.55988413 382.5357746 221 391.2109375 C219.01144319 394.59148408 217.44744186 396.34168778 214.125 398.3984375 C210.53417974 399.31809365 207.14973133 399.53373683 203.4519043 399.55957031 C201.77942879 399.57398163 201.77942879 399.57398163 200.07316589 399.58868408 C198.87726334 399.59293396 197.68136078 399.59718384 196.44921875 399.6015625 C194.5905291 399.61011261 194.5905291 399.61011261 192.69429016 399.61883545 C190.07427827 399.628274 187.45425457 399.63481488 184.83422852 399.63867188 C182.15830889 399.64306129 179.48271084 399.656975 176.80688477 399.6796875 C172.93756368 399.71021281 169.06864697 399.72072666 165.19921875 399.7265625 C164.00938889 399.7389093 162.81955902 399.7512561 161.59367371 399.76397705 C154.09836883 399.7439723 147.54034295 399.6895728 141.85595703 394.21191406 C139.70485338 390.71553628 138.03808729 387.15440506 136.4296875 383.3828125 C136.08426407 382.59018509 135.73884064 381.79755768 135.38294983 380.98091125 C134.24827572 378.37307346 133.12421919 375.76079716 132 373.1484375 C131.21117207 371.33094957 130.42152767 369.51381579 129.63110352 367.69702148 C127.9759954 363.89101486 126.32448452 360.08347619 124.67529297 356.27490234 C120.90107683 347.56753019 117.08114525 338.8802209 113.26251221 330.19226074 C112.07400014 327.48711273 110.88710992 324.78125865 109.70068359 322.07519531 C108.97625027 320.42382229 108.25180435 318.7724548 107.52734375 317.12109375 C107.19589859 316.36468094 106.86445343 315.60826813 106.52296448 314.82893372 C104.8857643 311.08500475 104.8857643 311.08500475 103.125 307.3984375 C44.055 307.3984375 -15.015 307.3984375 -75.875 307.3984375 C-89.35757035 337.71807493 -89.35757035 337.71807493 -102.6862793 368.10449219 C-114.53126286 395.2940555 -114.53126286 395.2940555 -120.875 398.3984375 C-124.06779599 399.40345354 -127.00414766 399.53586931 -130.34277344 399.55957031 C-131.43781189 399.56917786 -132.53285034 399.5787854 -133.66107178 399.58868408 C-134.84026184 399.59293396 -136.0194519 399.59718384 -137.234375 399.6015625 C-139.06189301 399.61011261 -139.06189301 399.61011261 -140.92633057 399.61883545 C-143.5052402 399.6282817 -146.08416188 399.63481794 -148.66308594 399.63867188 C-152.59591915 399.64836582 -156.52822717 399.67938906 -160.4609375 399.7109375 C-162.9687469 399.71746898 -165.47656004 399.72271888 -167.984375 399.7265625 C-169.74101471 399.7450827 -169.74101471 399.7450827 -171.53314209 399.76397705 C-178.02750585 399.74638099 -183.01491884 399.29000366 -188.875 396.3984375 C-192.49822042 392.31070164 -193.96162898 388.85606335 -193.875 383.3984375 C-190.94715287 374.14501566 -186.65537371 365.31179577 -182.57647705 356.52185059 C-180.79274394 352.67651154 -179.02323969 348.82463747 -177.25390625 344.97265625 C-176.88883972 344.17828156 -176.52377319 343.38390686 -176.14764404 342.56546021 C-172.35433008 334.2939138 -168.67530358 325.97289796 -165 317.6484375 C-158.97925574 304.02269982 -152.79464781 290.47876202 -146.52990723 276.96362305 C-141.17310012 265.40620225 -135.89325184 253.8205458 -130.70629883 242.18579102 C-126.48612782 232.73025349 -122.18948841 223.31122982 -117.875 213.8984375 C-113.06231508 203.39595573 -108.27702287 192.882945 -103.5625 182.3359375 C-98.25751664 170.46888949 -92.91955487 158.61707162 -87.5625 146.7734375 C-86.95488327 145.43001282 -86.95488327 145.43001282 -86.33499146 144.05944824 C-80.42379881 130.99388551 -74.47568784 117.94560868 -68.50228882 104.90838623 C-63.55148188 94.10071439 -58.66486323 83.26645172 -53.81811523 72.41162109 C-48.77830851 61.14195592 -43.64455098 49.91585665 -38.48901367 38.69873047 C-35.69169383 32.60649815 -32.89964782 26.51726757 -30.2578125 20.35546875 C-29.7150769 19.09416138 -29.7150769 19.09416138 -29.16137695 17.80737305 C-28.54489271 16.36159463 -27.9380036 14.91165469 -27.34448242 13.45629883 C-24.91334942 7.75125003 -22.07999881 4.436084 -16.44262695 1.78320312 C-11.03120504 -0.15145727 -5.68973367 -0.03225994 0 0 Z M-12.875 14.3984375 C-20.48205908 30.52822018 -28.05445197 46.64372986 -35.24536133 62.96264648 C-39.35367575 72.27051444 -43.57098211 81.52566709 -47.8125 90.7734375 C-52.73257092 101.50371897 -57.62157024 112.24595801 -62.4375 123.0234375 C-67.00688732 133.24783921 -71.61206441 143.45498538 -76.25 153.6484375 C-76.56234589 154.33500427 -76.87469177 155.02157104 -77.19650269 155.72894287 C-79.7407319 161.32072566 -82.28694871 166.91160284 -84.83325195 172.50244141 C-87.05642695 177.38401913 -89.27872848 182.26599333 -91.5 187.1484375 C-91.81308105 187.83647461 -92.12616211 188.52451172 -92.44873047 189.23339844 C-96.75052867 198.68980356 -101.01400472 208.16234332 -105.25 217.6484375 C-110.25319838 228.85260743 -115.3618024 240.00564041 -120.5 251.1484375 C-125.22931563 261.40470018 -129.92434679 271.66963139 -134.4375 282.0234375 C-140.37293864 295.64016576 -146.58227803 309.12927267 -152.77453613 322.63047791 C-158.00591795 334.04027814 -163.19523311 345.46923031 -168.37785339 356.90124512 C-170.17918252 360.87249345 -171.99237673 364.83811645 -173.8125 368.80078125 C-174.64586372 370.62498612 -175.47919963 372.44920369 -176.3125 374.2734375 C-176.87022095 375.47697876 -176.87022095 375.47697876 -177.43920898 376.70483398 C-179.35344377 380.88013441 -179.35344377 380.88013441 -179.875 385.3984375 C-161.725 385.3984375 -143.575 385.3984375 -124.875 385.3984375 C-117.6338281 369.1270983 -110.41809073 352.84577086 -103.25585938 336.53955078 C-101.82377819 333.28192057 -100.38881474 330.02557262 -98.953125 326.76953125 C-98.4691626 325.67141113 -97.9852002 324.57329102 -97.48657227 323.44189453 C-96.57611635 321.37623816 -95.66519216 319.31078808 -94.75366211 317.24560547 C-91.40801141 309.65101046 -88.1446081 302.02752308 -84.875 294.3984375 C-19.865 294.3984375 45.145 294.3984375 112.125 294.3984375 C130.17314189 335.00675676 130.17314189 335.00675676 137.79101562 352.36279297 C139.24843493 355.67932876 140.70982702 358.99409595 142.171875 362.30859375 C142.92827271 364.02429565 142.92827271 364.02429565 143.69995117 365.7746582 C144.66564755 367.96486964 145.63192235 370.15482618 146.59887695 372.34448242 C147.03159912 373.32650635 147.46432129 374.30853027 147.91015625 375.3203125 C148.29051025 376.18237305 148.67086426 377.04443359 149.06274414 377.93261719 C150.12694636 380.40295559 151.12602824 382.9010081 152.125 385.3984375 C170.605 385.3984375 189.085 385.3984375 208.125 385.3984375 C207.30297494 380.14193418 207.30297494 380.14193418 205.52124023 375.52490234 C205.19192001 374.8192514 204.86259979 374.11360046 204.52330017 373.38656616 C203.98389549 372.25935654 203.98389549 372.25935654 203.43359375 371.109375 C203.0570314 370.30625885 202.68046906 369.5031427 202.29249573 368.6756897 C201.48004445 366.94413562 200.66441773 365.21406863 199.84594727 363.48535156 C197.65067436 358.84675704 195.48018376 354.19659247 193.30859375 349.546875 C192.86703949 348.60261658 192.42548523 347.65835815 191.97055054 346.68548584 C187.90603441 337.97349061 183.99651692 329.19748593 180.125 320.3984375 C174.05323515 306.61759521 167.77339687 292.94249152 161.4107666 279.29373169 C155.42818203 266.45367666 149.60074013 253.55461623 143.88623047 240.59326172 C139.26883368 230.12792617 134.51728168 219.7380103 129.625 209.3984375 C124.38301926 198.31979464 119.31937648 187.17551585 114.375 175.9609375 C108.60351506 162.8705611 102.66942218 149.86499215 96.625 136.8984375 C90.28849708 123.30259826 84.0808925 109.65984201 78.02401733 95.93722534 C72.58483616 83.61828314 67.00851173 71.36751018 61.3666687 59.14016724 C54.50819402 44.27451268 47.79554542 29.34965999 41.125 14.3984375 C23.305 14.3984375 5.485 14.3984375 -12.875 14.3984375 Z " fill="#010101" transform="translate(240.875,55.6015625)"/>
<path d="M0 0 C2.29292959 2.85666318 3.86010649 5.62243264 5.3125 8.98046875 C5.74224121 9.96619873 6.17198242 10.95192871 6.61474609 11.9675293 C7.07187988 13.03011963 7.52901367 14.09270996 8 15.1875 C8.99202255 17.46882174 9.98421459 19.75006977 10.9765625 22.03125 C11.73308105 23.77728516 11.73308105 23.77728516 12.50488281 25.55859375 C14.33358373 29.76783088 16.18542256 33.96657609 18.03979492 38.16455078 C22.19656472 47.57561746 26.30546967 57.00646553 30.38391113 66.45172119 C36.55988285 80.75271237 42.8646999 94.9940987 49.20343018 109.22360229 C49.70021271 110.3388176 49.70021271 110.3388176 50.20703125 111.4765625 C50.53419128 112.21093536 50.86135132 112.94530823 51.19842529 113.70193481 C55.38966394 123.11431895 59.53347931 132.54750642 63.67480469 141.98193359 C66.09296001 147.48916207 68.51540538 152.99450321 70.9375 158.5 C71.38649658 159.5211792 71.83549316 160.5423584 72.2980957 161.59448242 C72.72437256 162.56361572 73.15064941 163.53274902 73.58984375 164.53125 C73.99444824 165.45292969 74.39905273 166.37460937 74.81591797 167.32421875 C75.60252815 169.10179556 76.39838302 170.87531133 77.20361328 172.64453125 C77.57083496 173.45277344 77.93805664 174.26101563 78.31640625 175.09375 C78.6419751 175.80208984 78.96754395 176.51042969 79.30297852 177.24023438 C80 179 80 179 80 181 C27.53 181 -24.94 181 -79 181 C-73.37873033 166.38469886 -73.37873033 166.38469886 -71.0546875 161.265625 C-70.54083496 160.12770508 -70.02698242 158.98978516 -69.49755859 157.81738281 C-68.96211426 156.64014648 -68.42666992 155.46291016 -67.875 154.25 C-66.71703892 151.68827131 -65.56174779 149.12534053 -64.40625 146.5625 C-64.11777191 145.92354797 -63.82929382 145.28459595 -63.53207397 144.62628174 C-60.77594282 138.51714157 -58.06838591 132.38705124 -55.375 126.25 C-54.92946777 125.23518555 -54.48393555 124.22037109 -54.02490234 123.17480469 C-53.13057554 121.13684328 -52.23653097 119.098758 -51.34277344 117.06054688 C-49.066262 111.87175645 -46.78273646 106.68605402 -44.5 101.5 C-43.58330062 99.41668106 -42.66663393 97.33334774 -41.75 95.25 C-25.25 57.75 -25.25 57.75 -23.8737793 54.62231445 C-22.96109429 52.54797137 -22.04849603 50.47359013 -21.13598633 48.39916992 C-18.78412571 43.05296256 -16.43056426 37.70751356 -14.07421875 32.36328125 C-9.32934954 21.59800613 -4.59222852 10.83145882 0 0 Z M0 33 C-0.44577393 34.01682861 -0.89154785 35.03365723 -1.35083008 36.08129883 C-9.65160168 55.01312531 -17.96443821 73.93946777 -26.32577515 92.84463501 C-28.6850182 98.17977281 -31.04202506 103.51589911 -33.3992157 108.85194397 C-35.4440926 113.48051795 -37.49040078 118.10845142 -39.5390625 122.73535156 C-41.63166487 127.46201492 -43.72013318 132.19048616 -45.8059082 136.92016602 C-46.59205025 138.70092 -47.37961125 140.48104836 -48.16870117 142.26049805 C-49.2620957 144.72669706 -50.35035988 147.19510133 -51.4375 149.6640625 C-51.75537476 150.37781036 -52.07324951 151.09155823 -52.40075684 151.82693481 C-54.60204524 156.84628381 -56.24890552 161.74671656 -58 167 C-19.39 167 19.22 167 59 167 C56.94847834 160.84543501 54.82443917 155.03859126 52.18359375 149.15625 C51.81528442 148.32656708 51.4469751 147.49688416 51.06750488 146.64205933 C50.27483078 144.85763384 49.48029229 143.07403557 48.68405151 141.29119873 C46.97308415 137.46010963 45.27128966 133.62496657 43.56874084 129.79013062 C42.68554621 127.80116709 41.8018646 125.81241974 40.91770935 123.82388306 C36.5598929 114.02118721 32.24481713 104.19996564 27.9375 94.375 C27.20585843 92.70709162 26.47416897 91.03920425 25.74243164 89.37133789 C24.2657274 86.00530614 22.78927997 82.63916192 21.31298828 79.27294922 C17.57698563 70.75497548 13.83707097 62.23871862 10.09768677 53.722229 C8.1665587 49.32399025 6.23562739 44.92566512 4.3046875 40.52734375 C3.65869239 39.05590777 3.01269641 37.58447217 2.36669922 36.11303711 C1.69018311 34.57208374 1.69018311 34.57208374 1 33 C0.67 33 0.34 33 0 33 Z " fill="#010101" transform="translate(254,125)"/>
</svg>
