<svg xmlns="http://www.w3.org/2000/svg" width="512" height="512" viewBox="0 0 512 512" version="1.1"><path d="" stroke="none" fill="#080404" fill-rule="evenodd"/><path d="M 190.500 1.387 C 179.886 4.792, 168.192 13.127, 162.738 21.175 C 160.753 24.104, 153.636 39.662, 146.921 55.750 L 134.713 85 81.256 85 L 27.800 85 24.400 88.400 L 21 91.800 21 105.966 C 21 128.035, 20.902 127.947, 45.750 127.978 L 64 128 64.007 292.250 C 64.014 453.258, 64.054 456.665, 66.022 464.876 C 70.455 483.367, 83.180 500.520, 97.840 507.765 L 105.396 511.500 255.948 511.500 L 406.500 511.500 413.335 508.158 C 425.091 502.411, 436.373 489.506, 442.325 475 C 448.269 460.513, 447.969 470.214, 447.985 291.750 L 448 128 466.250 127.978 C 491.098 127.947, 491 128.035, 491 105.966 L 491 91.800 487.600 88.400 L 484.200 85 430.744 85 L 377.287 85 365.079 55.750 C 358.364 39.663, 351.262 24.126, 349.295 21.224 C 344.742 14.504, 337.515 8.697, 328 4.113 L 320.500 0.500 257.500 0.302 C 208.533 0.148, 193.609 0.390, 190.500 1.387 M 200.116 44.750 C 198.959 45.712, 194.430 55.050, 190.053 65.500 L 182.094 84.500 255.707 84.756 C 296.194 84.898, 329.455 84.878, 329.619 84.714 C 329.784 84.549, 326.529 76.109, 322.386 65.957 C 317.686 54.442, 313.920 46.654, 312.371 45.250 L 309.888 43 256.055 43 C 206.254 43, 202.064 43.131, 200.116 44.750 M 107 287.951 C 107 396.885, 107.338 449.479, 108.060 452.846 C 108.644 455.566, 110.561 460.200, 112.321 463.145 L 115.520 468.500 256 468.500 L 396.480 468.500 399.679 463.145 C 401.439 460.200, 403.356 455.566, 403.940 452.846 C 404.662 449.479, 405 396.885, 405 287.951 L 405 128 256 128 L 107 128 107 287.951 M 153.367 193.772 C 152.194 194.723, 150.731 196.483, 150.117 197.684 C 148.416 201.011, 148.572 396.585, 150.279 400 C 152.767 404.980, 157.058 406.106, 172.335 405.788 L 186.169 405.500 189.085 402.234 L 192 398.968 192 298.407 L 192 197.846 189.077 194.923 L 186.154 192 170.827 192.022 C 157.817 192.041, 155.178 192.306, 153.367 193.772 M 237.766 194.918 L 234.500 197.836 234.236 296.916 C 233.942 407.041, 233.634 401.696, 240.432 404.536 C 245.280 406.562, 266.720 406.562, 271.568 404.536 C 278.366 401.696, 278.058 407.041, 277.764 296.916 L 277.500 197.836 274.234 194.918 L 270.968 192 256 192 L 241.032 192 237.766 194.918 M 322.923 194.923 L 320 197.846 320 298.407 L 320 398.968 322.915 402.234 L 325.831 405.500 339.665 405.788 C 354.942 406.106, 359.233 404.980, 361.721 400 C 363.428 396.585, 363.584 201.011, 361.883 197.684 C 359.230 192.496, 357.583 192.046, 341.173 192.022 L 325.846 192 322.923 194.923" stroke="none" fill="#040404" fill-rule="evenodd"/></svg>