<svg xmlns="http://www.w3.org/2000/svg" width="512" height="512" viewBox="0 0 512 512" version="1.1"><path d="" stroke="none" fill="#080404" fill-rule="evenodd"/><path d="M 134.909 5.837 C 131.834 6.854, 127.334 9.070, 124.909 10.763 C 122.484 12.455, 94.584 39.864, 62.909 71.670 C -3.292 138.145, 0.510 133.312, 0.504 151 C 0.500 160.303, 0.805 162.152, 3.180 167.218 C 6.922 175.203, 13.945 182.355, 21.874 186.259 C 28.034 189.291, 29.136 189.500, 38.979 189.500 C 55.407 189.500, 56.643 188.728, 84.250 161.223 L 107 138.558 107 305.569 C 107 487.643, 106.722 478.551, 112.589 488.561 C 116.305 494.903, 125.064 502.483, 131.753 505.148 C 136.320 506.966, 139.451 507.438, 147 507.443 C 155.669 507.448, 157.081 507.167, 163.142 504.225 C 171.549 500.144, 179.875 491.437, 183.165 483.285 L 185.500 477.500 185.764 308.063 L 186.028 138.626 208.325 160.782 C 235.413 187.699, 236.705 188.500, 253.021 188.500 C 262.864 188.500, 263.966 188.291, 270.126 185.259 C 278.055 181.355, 285.078 174.203, 288.820 166.218 C 291.195 161.152, 291.500 159.301, 291.500 149.979 C 291.500 132.044, 294.625 135.991, 227.301 68.891 C 174.270 16.037, 168.938 11.009, 162.685 7.972 C 154.015 3.760, 143.610 2.961, 134.909 5.837 M 356.081 5.588 C 346.711 8.108, 338.674 14.173, 332.997 23.010 C 326.674 32.852, 327 22.894, 327 206.431 L 327 373.441 304.750 351.381 C 292.512 339.248, 280.925 328.388, 279 327.249 C 268.321 320.927, 252.854 320.336, 241.710 325.822 C 222.012 335.519, 214.159 359.329, 224.086 379.251 C 226.807 384.711, 234.475 392.771, 284.850 443.122 C 338.435 496.681, 342.992 500.982, 349.479 504.122 C 355.939 507.249, 357.166 507.497, 365.979 507.461 C 383.900 507.387, 378.946 511.293, 446.295 444.132 C 512.948 377.663, 510.989 380.043, 511.801 364.563 C 512.338 354.343, 510.525 347.524, 505.271 340.003 C 493.204 322.731, 469.515 317.861, 452 329.052 C 449.525 330.633, 438.275 341.172, 427 352.473 L 406.500 373.019 406 203.707 L 405.500 34.396 401.734 26.776 C 392.964 9.033, 374.736 0.573, 356.081 5.588" stroke="none" fill="#040404" fill-rule="evenodd"/></svg>